<svg width="20" height="20" viewBox="0 0 20 20" fill="none" xmlns="http://www.w3.org/2000/svg">
<circle cx="10" cy="10" r="10" fill="#CD9F46"/>
<path fill-rule="evenodd" clip-rule="evenodd" d="M13.5355 4.46447C14.4732 5.40215 15 6.67392 15 8V13C15 14.1046 14.1046 15 13 15H7C5.89543 15 5 14.1046 5 13V8C5 6.67392 5.52678 5.40215 6.46447 4.46447C7.40215 3.52678 8.67392 3 10 3C11.3261 3 12.5979 3.52678 13.5355 4.46447ZM12.1213 5.87868C12.1608 5.91815 12.1991 5.95861 12.2361 6C12.4986 6.29352 12.6989 6.63374 12.8284 7C12.9409 7.3182 13 7.65606 13 8L7 8C7 7.65606 7.05906 7.3182 7.17157 7C7.30107 6.63374 7.50138 6.29352 7.76393 6C7.80095 5.95861 7.83921 5.91815 7.87868 5.87868C8.44129 5.31607 9.20435 5 10 5C10.7956 5 11.5587 5.31607 12.1213 5.87868ZM10.75 10.75C10.75 11.0356 10.5904 11.2839 10.3555 11.4106V11.9045C10.3555 12.0149 10.2659 12.1045 10.1555 12.1045H9.84453C9.73407 12.1045 9.64453 12.0149 9.64453 11.9045V11.4106C9.40963 11.2839 9.25 11.0356 9.25 10.75C9.25 10.3358 9.58579 10 10 10C10.4142 10 10.75 10.3358 10.75 10.75Z" fill="white"/>
</svg>
