<svg width="30" height="30" viewBox="0 0 30 30" fill="none" xmlns="http://www.w3.org/2000/svg">
<path d="M27.1402 25.3623L22.5027 20.7623C24.3028 18.5178 25.1746 15.6689 24.9387 12.8014C24.7028 9.93389 23.3773 7.26574 21.2346 5.34556C19.0919 3.42539 16.2949 2.39915 13.4188 2.47785C10.5427 2.55655 7.80609 3.73421 5.77162 5.76869C3.73714 7.80316 2.55948 10.5398 2.48078 13.4159C2.40208 16.292 3.42832 19.089 5.34849 21.2317C7.26867 23.3743 9.93682 24.6999 12.8043 24.9358C15.6718 25.1716 18.5207 24.2999 20.7652 22.4998L25.3652 27.0998C25.4814 27.2169 25.6196 27.3099 25.772 27.3734C25.9243 27.4368 26.0877 27.4695 26.2527 27.4695C26.4177 27.4695 26.5811 27.4368 26.7334 27.3734C26.8857 27.3099 27.024 27.2169 27.1402 27.0998C27.3655 26.8667 27.4914 26.5552 27.4914 26.231C27.4914 25.9068 27.3655 25.5953 27.1402 25.3623ZM13.7527 22.4998C12.0221 22.4998 10.3304 21.9866 8.89145 21.0251C7.45252 20.0637 6.33101 18.6971 5.66874 17.0982C5.00648 15.4994 4.8332 13.7401 5.17082 12.0427C5.50844 10.3454 6.34179 8.78628 7.5655 7.56257C8.78921 6.33886 10.3483 5.50551 12.0456 5.16789C13.743 4.83027 15.5023 5.00355 17.1012 5.66581C18.7 6.32808 20.0666 7.44959 21.028 8.88852C21.9895 10.3274 22.5027 12.0192 22.5027 13.7498C22.5027 16.0704 21.5808 18.296 19.9399 19.9369C18.2989 21.5779 16.0733 22.4998 13.7527 22.4998Z" fill="#65507E"/>
<path fill-rule="evenodd" clip-rule="evenodd" d="M13.75 22.5C18.5825 22.5 22.5 18.5825 22.5 13.75C22.5 8.91751 18.5825 5 13.75 5C8.91751 5 5 8.91751 5 13.75C5 18.5825 8.91751 22.5 13.75 22.5ZM10.056 7C9.95621 7 9.8508 7.01855 9.74722 7.06393C8.81903 7.47059 7.73611 8.41627 6.92655 9.72161C6.11023 11.0379 5.54981 12.7543 5.71707 14.722C5.75981 15.2247 6.2241 15.5 6.60199 15.5C6.86714 15.5 7.09495 15.3777 7.23396 15.1657C7.35062 14.9879 7.37748 14.7887 7.38261 14.6491C7.47585 12.113 8.27062 10.0084 10.4962 8.51623C10.8371 8.28772 10.9013 7.89606 10.826 7.61042C10.7499 7.32172 10.4896 7 10.056 7Z" fill="#65507E"/>
</svg>
