<svg width="28" height="27" viewBox="0 0 28 27" fill="none" xmlns="http://www.w3.org/2000/svg">
<path opacity="0.4" d="M14.5923 22.5038L21.3764 26.822C22.2513 27.3753 23.3281 26.5521 23.0724 25.5401L21.1072 17.7942C21.054 17.5795 21.0625 17.3541 21.1315 17.144C21.2006 16.9339 21.3275 16.7477 21.4975 16.6067L27.5817 11.5193C28.3758 10.858 27.972 9.52209 26.9356 9.45462L18.9939 8.94182C18.7772 8.92918 18.5688 8.85354 18.3943 8.72413C18.2198 8.59472 18.0867 8.41715 18.0112 8.21312L15.0499 0.73717C14.9715 0.521127 14.8287 0.334499 14.6409 0.20262C14.4531 0.0707411 14.2293 0 14 0C13.7707 0 13.5469 0.0707411 13.3591 0.20262C13.1713 0.334499 13.0285 0.521127 12.9501 0.73717L9.98876 8.21312C9.91329 8.41715 9.78017 8.59472 9.60566 8.72413C9.43116 8.85354 9.22283 8.92918 9.00614 8.94182L1.06443 9.45462C0.0279668 9.52209 -0.375849 10.858 0.418322 11.5193L6.50248 16.6067C6.67254 16.7477 6.7994 16.9339 6.86847 17.144C6.93753 17.3541 6.94598 17.5795 6.89284 17.7942L5.07567 24.9733C4.76607 26.1878 6.05829 27.1729 7.09475 26.5117L13.4077 22.5038C13.5848 22.3909 13.7902 22.331 14 22.331C14.2098 22.331 14.4152 22.3909 14.5923 22.5038Z" fill="white"/>
</svg>
