<svg data-name="Layer 2" xmlns="http://www.w3.org/2000/svg" xmlns:xlink="http://www.w3.org/1999/xlink" viewBox="0 0 273.7 125.1"><defs><linearGradient id="id-915j" x1=".68" y1="109.98" x2="15.68" y2="109.98" gradientTransform="matrix(1 0 0 -1 0 133.56)" gradientUnits="userSpaceOnUse"><stop offset="0" stop-color="#ff5c9a"/><stop offset=".2" stop-color="#ff58a3"/><stop offset=".54" stop-color="#ff4cbd"/><stop offset=".97" stop-color="#ff38e6"/><stop offset=".99" stop-color="#ff37e9"/></linearGradient><linearGradient id="id-916k" x1="24.8" y1="48.96" x2="2.63" y2="101.12" gradientTransform="matrix(1 0 0 -1 0 133.56)" gradientUnits="userSpaceOnUse"><stop offset="0" stop-color="#ff5c9a"/><stop offset=".19" stop-color="#ff5ea3"/><stop offset=".5" stop-color="#ff63bd"/><stop offset=".89" stop-color="#ff6be6"/><stop offset=".99" stop-color="#ff6df2"/></linearGradient><linearGradient id="id-909d" x1="78.53" y1="-266.47" x2="133.53" y2="-266.47" gradientTransform="scale(1 -1) rotate(16.8 -687.531 -274.8)" gradientUnits="userSpaceOnUse"><stop offset="0" stop-color="#ffd25f"/><stop offset=".05" stop-color="#f8c252"/><stop offset=".33" stop-color="#cd6107"/><stop offset="1" stop-color="#b64406"/></linearGradient><linearGradient id="id-910e" x1="78.56" y1="-781.91" x2="133.41" y2="-781.91" gradientTransform="matrix(.96 -.29 .29 .96 196.51 815.22)" gradientUnits="userSpaceOnUse"><stop offset=".13" stop-color="#ffd25f"/><stop offset=".16" stop-color="#f8c252"/><stop offset=".35" stop-color="#cd6107"/><stop offset=".83" stop-color="#b64406"/></linearGradient><linearGradient id="id-911f" x1="78.53" y1="-253.49" x2="133.53" y2="-253.49" gradientTransform="scale(1 -1) rotate(16.8 -687.531 -274.8)" gradientUnits="userSpaceOnUse"><stop offset="0" stop-color="#fef8aa"/><stop offset=".1" stop-color="#fef286"/><stop offset=".38" stop-color="#fee125"/><stop offset=".81" stop-color="#fea200"/></linearGradient><linearGradient id="id-912g" x1="116.74" y1="-253.93" x2="133.57" y2="-253.93" gradientTransform="scale(1 -1) rotate(16.8 -687.531 -274.8)" gradientUnits="userSpaceOnUse"><stop offset="0" stop-color="#f28c06"/><stop offset=".81" stop-color="#ee7701"/></linearGradient><linearGradient id="id-906a" x1="84.84" y1="-251.66" x2="128.02" y2="-251.66" gradientTransform="scale(1 -1) rotate(16.8 -687.531 -274.8)" gradientUnits="userSpaceOnUse"><stop offset="0" stop-color="#fbc002"/><stop offset=".45" stop-color="#fdcf1a"/><stop offset="1" stop-color="#ff9002"/></linearGradient><linearGradient id="id-917l" x1="84.85" y1="-796.52" x2="128.03" y2="-796.52" gradientTransform="matrix(.96 -.29 .29 .96 196.51 815.22)" xlink:href="#id-906a"/><linearGradient id="id-907b" x1="105.6" y1="-790.99" x2="115.29" y2="-790.99" gradientTransform="matrix(.96 -.29 .29 .96 196.51 815.22)" gradientUnits="userSpaceOnUse"><stop offset="0" stop-color="#fcda79"/><stop offset=".45" stop-color="#ffe560"/><stop offset="1" stop-color="#ffd825"/></linearGradient><linearGradient id="id-908c" x1="105.47" y1="-790.99" x2="115.41" y2="-790.99" gradientTransform="matrix(.96 -.29 .29 .96 196.51 815.22)" gradientUnits="userSpaceOnUse"><stop offset="0" stop-color="#fadd13"/><stop offset=".19" stop-color="#fbe02a"/><stop offset="1" stop-color="#fdea8b"/></linearGradient><linearGradient id="id-918m" x1="101.64" y1="-799.38" x2="120.09" y2="-799.38" xlink:href="#id-907b"/><linearGradient id="id-919n" x1="101.51" y1="-799.38" x2="120.22" y2="-799.38" xlink:href="#id-908c"/><linearGradient id="id-920o" x1="105.92" y1="-787.7" x2="110.08" y2="-787.7" xlink:href="#id-907b"/><linearGradient id="id-921p" x1="105.79" y1="-787.71" x2="110.21" y2="-787.71" xlink:href="#id-908c"/><linearGradient id="id-922q" x1="99.04" y1="-794.4" x2="117.42" y2="-794.4" xlink:href="#id-907b"/><linearGradient id="id-923r" x1="98.91" y1="-794.4" x2="117.47" y2="-794.4" xlink:href="#id-908c"/><linearGradient id="id-924s" x1="101.08" y1="-798.4" x2="110.82" y2="-798.4" xlink:href="#id-907b"/><linearGradient id="id-925t" x1="100.96" y1="-798.4" x2="110.95" y2="-798.4" xlink:href="#id-908c"/><linearGradient id="id-926u" x1="92.3" y1="-799.46" x2="111.22" y2="-799.46" xlink:href="#id-907b"/><linearGradient id="id-927v" x1="92.17" y1="-799.46" x2="111.35" y2="-799.46" xlink:href="#id-908c"/><linearGradient id="id-939H" x1="69.13" y1="-325.03" x2="124.13" y2="-325.03" gradientTransform="matrix(.92 .38 .38 -.92 176.32 -297.23)" xlink:href="#id-909d"/><linearGradient id="id-940I" x1="69.13" y1="-723.49" x2="123.94" y2="-723.49" gradientTransform="matrix(.92 .38 -.38 .92 -225.82 671.11)" xlink:href="#id-910e"/><linearGradient id="id-941J" x1="69.13" y1="-312.05" x2="124.13" y2="-312.05" gradientTransform="matrix(.92 .38 .38 -.92 176.32 -297.23)" xlink:href="#id-911f"/><linearGradient id="id-942K" x1="107.35" y1="-312.38" x2="124.17" y2="-312.38" gradientTransform="matrix(.92 .38 .38 -.92 176.32 -297.23)" xlink:href="#id-912g"/><linearGradient id="id-943L" x1="75.45" y1="-310.13" x2="118.67" y2="-310.13" gradientTransform="matrix(.92 .38 .38 -.92 176.32 -297.23)" xlink:href="#id-906a"/><linearGradient id="id-944M" x1="75.46" y1="-738.16" x2="118.67" y2="-738.16" gradientTransform="matrix(.92 .38 -.38 .92 -225.82 671.11)" xlink:href="#id-906a"/><linearGradient id="id-946O" x1="96.2" y1="-732.58" x2="105.89" y2="-732.58" gradientTransform="matrix(.92 .38 -.38 .92 -225.82 671.11)" xlink:href="#id-907b"/><linearGradient id="id-947P" x1="96.07" y1="-732.58" x2="106.02" y2="-732.58" gradientTransform="matrix(.92 .38 -.38 .92 -225.82 671.11)" xlink:href="#id-908c"/><linearGradient id="id-948Q" x1="92.25" y1="-740.95" x2="110.68" y2="-740.95" gradientTransform="matrix(.92 .38 -.38 .92 -225.82 671.11)" xlink:href="#id-907b"/><linearGradient id="id-949R" x1="92.12" y1="-740.95" x2="110.81" y2="-740.95" gradientTransform="matrix(.92 .38 -.38 .92 -225.82 671.11)" xlink:href="#id-908c"/><linearGradient id="id-950S" x1="96.52" y1="-729.27" x2="100.69" y2="-729.27" gradientTransform="matrix(.92 .38 -.38 .92 -225.82 671.11)" xlink:href="#id-907b"/><linearGradient id="id-951T" x1="96.39" y1="-729.27" x2="100.81" y2="-729.27" gradientTransform="matrix(.92 .38 -.38 .92 -225.82 671.11)" xlink:href="#id-908c"/><linearGradient id="id-952U" x1="89.64" y1="-736.16" x2="108.02" y2="-736.16" gradientTransform="matrix(.92 .38 -.38 .92 -225.82 671.11)" xlink:href="#id-907b"/><linearGradient id="id-953V" x1="89.51" y1="-736.13" x2="108.07" y2="-736.13" gradientTransform="matrix(.92 .38 -.38 .92 -225.82 671.11)" xlink:href="#id-908c"/><linearGradient id="id-954W" x1="91.69" y1="-740.05" x2="101.43" y2="-740.05" gradientTransform="matrix(.92 .38 -.38 .92 -225.82 671.11)" xlink:href="#id-907b"/><linearGradient id="id-955X" x1="91.56" y1="-740.05" x2="101.56" y2="-740.05" gradientTransform="matrix(.92 .38 -.38 .92 -225.82 671.11)" xlink:href="#id-908c"/><linearGradient id="id-956Y" x1="82.9" y1="-741.19" x2="101.82" y2="-741.19" gradientTransform="matrix(.92 .38 -.38 .92 -225.82 671.11)" xlink:href="#id-907b"/><linearGradient id="id-957Z" x1="82.78" y1="-741.19" x2="101.95" y2="-741.19" gradientTransform="matrix(.92 .38 -.38 .92 -225.82 671.11)" xlink:href="#id-908c"/><linearGradient id="id-970am" x1="88.56" y1="-271.89" x2="143.56" y2="-271.89" gradientTransform="matrix(1 -.07 -.07 -1 -26.76 -228.99)" xlink:href="#id-909d"/><linearGradient id="id-971an" x1="88.57" y1="-776.57" x2="143.42" y2="-776.57" gradientTransform="translate(45.68 816.95)" xlink:href="#id-910e"/><linearGradient id="id-972ao" x1="88.55" y1="-259.01" x2="143.55" y2="-259.01" gradientTransform="matrix(1 -.07 -.07 -1 -26.76 -228.99)" xlink:href="#id-911f"/><linearGradient id="id-973ap" x1="126.77" y1="-259.32" x2="143.59" y2="-259.32" gradientTransform="matrix(1 -.07 -.07 -1 -26.76 -228.99)" xlink:href="#id-912g"/><linearGradient id="id-974aq" x1="94.9" y1="-257.04" x2="138.08" y2="-257.04" gradientTransform="matrix(1 -.07 -.07 -1 -26.76 -228.99)" xlink:href="#id-906a"/><linearGradient id="id-975ar" x1="94.9" y1="-791.22" x2="138.07" y2="-791.22" gradientTransform="translate(45.68 816.95)" xlink:href="#id-906a"/><linearGradient id="id-977at" x1="115.61" y1="-785.63" x2="125.31" y2="-785.63" gradientTransform="translate(45.68 816.95)" xlink:href="#id-907b"/><linearGradient id="id-978au" x1="115.49" y1="-785.63" x2="125.43" y2="-785.63" gradientTransform="translate(45.68 816.95)" xlink:href="#id-908c"/><linearGradient id="id-979av" x1="111.67" y1="-794" x2="130.1" y2="-794" gradientTransform="translate(45.68 816.95)" xlink:href="#id-907b"/><linearGradient id="id-980aw" x1="111.54" y1="-794" x2="130.23" y2="-794" gradientTransform="translate(45.68 816.95)" xlink:href="#id-908c"/><linearGradient id="id-981ax" x1="115.94" y1="-782.23" x2="120.11" y2="-782.23" gradientTransform="translate(45.68 816.95)" xlink:href="#id-907b"/><linearGradient id="id-982ay" x1="115.81" y1="-782.24" x2="120.23" y2="-782.24" gradientTransform="translate(45.68 816.95)" xlink:href="#id-908c"/><linearGradient id="id-983az" x1="109.06" y1="-789.18" x2="127.44" y2="-789.18" gradientTransform="translate(45.68 816.95)" xlink:href="#id-907b"/><linearGradient id="id-984aA" x1="108.93" y1="-789.25" x2="127.49" y2="-789.25" gradientTransform="translate(45.68 816.95)" xlink:href="#id-908c"/><linearGradient id="id-985aB" x1="111.11" y1="-793.09" x2="120.85" y2="-793.09" gradientTransform="translate(45.68 816.95)" xlink:href="#id-907b"/><linearGradient id="id-986aC" x1="110.98" y1="-793.09" x2="120.98" y2="-793.09" gradientTransform="translate(45.68 816.95)" xlink:href="#id-908c"/><linearGradient id="id-987aD" x1="102.32" y1="-794.07" x2="121.24" y2="-794.07" gradientTransform="translate(45.68 816.95)" xlink:href="#id-907b"/><linearGradient id="id-988aE" x1="102.2" y1="-794.07" x2="121.37" y2="-794.07" gradientTransform="translate(45.68 816.95)" xlink:href="#id-908c"/><linearGradient id="id-1001aR" x1="130.48" y1="9.98" x2="130.48" y2="97.98" gradientTransform="matrix(1 0 0 -1 0 133.56)" gradientUnits="userSpaceOnUse"><stop offset=".11" stop-color="#ff1b56"/><stop offset=".3" stop-color="#c40b7a"/><stop offset=".78" stop-color="#b70691"/><stop offset=".93" stop-color="#ca01b8"/><stop offset="1" stop-color="#d501bd"/></linearGradient><linearGradient id="id-1004aU" x1="179.53" y1="72.38" x2="184.53" y2="102.21" gradientTransform="matrix(1 0 0 -1 0 133.56)" gradientUnits="userSpaceOnUse"><stop offset="0" stop-color="#782262"/><stop offset="1" stop-color="#782262" stop-opacity="0"/></linearGradient><linearGradient id="id-1005aV" x1="158.89" y1="-263.32" x2="213.89" y2="-263.32" gradientTransform="scale(1 -1) rotate(21.7 -400.9 -157.45)" xlink:href="#id-909d"/><linearGradient id="id-1006aW" x1="158.91" y1="-785.11" x2="213.68" y2="-785.11" gradientTransform="rotate(-21.9 2311.496 -369.433)" xlink:href="#id-910e"/><linearGradient id="id-1007aX" x1="158.94" y1="-250.34" x2="213.94" y2="-250.34" gradientTransform="scale(1 -1) rotate(21.7 -400.9 -157.45)" xlink:href="#id-911f"/><linearGradient id="id-1008aY" x1="197.08" y1="-250.77" x2="213.9" y2="-250.77" gradientTransform="scale(1 -1) rotate(21.7 -400.9 -157.45)" xlink:href="#id-912g"/><linearGradient id="id-1009aZ" x1="165.2" y1="-248.44" x2="208.42" y2="-248.44" gradientTransform="scale(1 -1) rotate(21.7 -400.9 -157.45)" xlink:href="#id-906a"/><linearGradient id="id-1010ba" x1="165.19" y1="-799.76" x2="208.4" y2="-799.76" gradientTransform="rotate(-21.9 2311.496 -369.433)" xlink:href="#id-906a"/><linearGradient id="id-1012bc" x1="185.93" y1="-794.2" x2="195.62" y2="-794.2" gradientTransform="rotate(-21.9 2311.496 -369.433)" xlink:href="#id-907b"/><linearGradient id="id-1013bd" x1="185.8" y1="-794.2" x2="195.75" y2="-794.2" gradientTransform="rotate(-21.9 2311.496 -369.433)" xlink:href="#id-908c"/><linearGradient id="id-1014be" x1="181.98" y1="-802.5" x2="200.41" y2="-802.5" gradientTransform="rotate(-21.9 2311.496 -369.433)" xlink:href="#id-907b"/><linearGradient id="id-1015bf" x1="181.85" y1="-802.5" x2="200.54" y2="-802.5" gradientTransform="rotate(-21.9 2311.496 -369.433)" xlink:href="#id-908c"/><linearGradient id="id-1016bg" x1="186.25" y1="-790.83" x2="190.42" y2="-790.83" gradientTransform="rotate(-21.9 2311.496 -369.433)" xlink:href="#id-907b"/><linearGradient id="id-1017bh" x1="186.12" y1="-790.83" x2="190.54" y2="-790.83" gradientTransform="rotate(-21.9 2311.496 -369.433)" xlink:href="#id-908c"/><linearGradient id="id-1018bi" x1="179.37" y1="-797.65" x2="197.75" y2="-797.65" gradientTransform="rotate(-21.9 2311.496 -369.433)" xlink:href="#id-907b"/><linearGradient id="id-1019bj" x1="179.24" y1="-797.65" x2="197.8" y2="-797.65" gradientTransform="rotate(-21.9 2311.496 -369.433)" xlink:href="#id-908c"/><linearGradient id="id-1020bk" x1="181.42" y1="-801.68" x2="191.16" y2="-801.68" gradientTransform="rotate(-21.9 2311.496 -369.433)" xlink:href="#id-907b"/><linearGradient id="id-1021bl" x1="181.29" y1="-801.68" x2="191.29" y2="-801.68" gradientTransform="rotate(-21.9 2311.496 -369.433)" xlink:href="#id-908c"/><linearGradient id="id-1022bm" x1="172.65" y1="-802.79" x2="191.57" y2="-802.79" gradientTransform="rotate(-21.9 2311.496 -369.433)" xlink:href="#id-907b"/><linearGradient id="id-1023bn" x1="172.52" y1="-802.79" x2="191.7" y2="-802.79" gradientTransform="rotate(-21.9 2311.496 -369.433)" xlink:href="#id-908c"/><linearGradient id="id-1036bA" x1="216.36" y1="98.4" x2="286.18" y2="98.4" gradientTransform="matrix(.92 .39 .39 -.92 -33.5 12.25)" gradientUnits="userSpaceOnUse"><stop offset=".4" stop-color="#821aea"/><stop offset=".41" stop-color="#963aee"/><stop offset=".68" stop-color="#7e2fc8"/><stop offset=".68" stop-color="#6f23b8"/><stop offset=".94" stop-color="#2c0057"/></linearGradient><radialGradient id="id-914i" cx="103.82" cy="-796.65" r="24.07" gradientTransform="matrix(.96 -.29 .29 .96 196.51 815.22)" gradientUnits="userSpaceOnUse"><stop offset="0" stop-color="#fbc002" stop-opacity="0"/><stop offset=".19" stop-color="#fab902" stop-opacity=".19"/><stop offset=".46" stop-color="#f7a704" stop-opacity=".46"/><stop offset=".78" stop-color="#f38905" stop-opacity=".78"/><stop offset="1" stop-color="#ef7007"/></radialGradient><radialGradient id="id-913h" cx="488.05" cy="-3052.55" r="4.97" gradientTransform="matrix(1 .09 .04 -.44 -301 -1335.48)" gradientUnits="userSpaceOnUse"><stop offset="0" stop-color="#fff"/><stop offset="1" stop-color="#fff" stop-opacity="0"/></radialGradient><radialGradient id="id-928w" cx="488.05" cy="-3052.55" r="3.43" xlink:href="#id-913h"/><radialGradient id="id-929x" cx="488.05" cy="-3052.55" r="2.72" xlink:href="#id-913h"/><radialGradient id="id-930y" cx="1286.34" cy="-3698.16" r="3.18" gradientTransform="matrix(1.41 .35 .11 -.43 -1365.45 -1986.18)" xlink:href="#id-913h"/><radialGradient id="id-931z" cx="1286.34" cy="-3698.16" r="2.19" gradientTransform="matrix(1.41 .35 .11 -.43 -1365.45 -1986.18)" xlink:href="#id-913h"/><radialGradient id="id-932A" cx="1286.34" cy="-3698.16" r="1.74" gradientTransform="matrix(1.41 .35 .11 -.43 -1365.45 -1986.18)" xlink:href="#id-913h"/><radialGradient id="id-933B" cx="923.46" cy="-4908.04" r="2.89" gradientTransform="matrix(.96 .29 .1 -.35 -296.52 -1966.03)" xlink:href="#id-913h"/><radialGradient id="id-934C" cx="923.46" cy="-4908.04" r="2" gradientTransform="matrix(.96 .29 .1 -.35 -296.52 -1966.03)" xlink:href="#id-913h"/><radialGradient id="id-935D" cx="923.46" cy="-4908.04" r="1.58" gradientTransform="matrix(.96 .29 .1 -.35 -296.52 -1966.03)" xlink:href="#id-913h"/><radialGradient id="id-936E" cx="363.48" cy="-2729.09" r="1.67" gradientTransform="matrix(1 -.05 -.02 -.41 -361.99 -1068.75)" xlink:href="#id-913h"/><radialGradient id="id-937F" cx="363.48" cy="-2729.09" r="1.16" gradientTransform="matrix(1 -.05 -.02 -.41 -361.99 -1068.75)" xlink:href="#id-913h"/><radialGradient id="id-938G" cx="363.48" cy="-2729.09" r=".92" gradientTransform="matrix(1 -.05 -.02 -.41 -361.99 -1068.75)" xlink:href="#id-913h"/><radialGradient id="id-945N" cx="94.42" cy="-738.16" r="24.07" gradientTransform="matrix(.92 .38 -.38 .92 -225.82 671.11)" xlink:href="#id-914i"/><radialGradient id="id-958aa" cx="501.53" cy="-3183.97" r="4.97" gradientTransform="matrix(.71 .7 .31 -.31 758.46 -1304.91)" xlink:href="#id-913h"/><radialGradient id="id-959ab" cx="501.53" cy="-3183.97" r="3.43" gradientTransform="matrix(.71 .7 .31 -.31 758.46 -1304.91)" xlink:href="#id-913h"/><radialGradient id="id-960ac" cx="501.53" cy="-3183.97" r="2.72" gradientTransform="matrix(.71 .7 .31 -.31 758.46 -1304.91)" xlink:href="#id-913h"/><radialGradient id="id-961ad" cx="1301.52" cy="-3823.36" r="3.18" gradientTransform="matrix(.86 1.17 .35 -.26 351.09 -2484.09)" xlink:href="#id-913h"/><radialGradient id="id-962ae" cx="1301.52" cy="-3823.36" r="2.19" gradientTransform="matrix(.86 1.17 .35 -.26 351.09 -2484.09)" xlink:href="#id-913h"/><radialGradient id="id-963af" cx="1301.52" cy="-3823.36" r="1.74" gradientTransform="matrix(.86 1.17 .35 -.26 351.09 -2484.09)" xlink:href="#id-913h"/><radialGradient id="id-964ag" cx="947.97" cy="-5056.4" r="2.89" gradientTransform="matrix(.56 .83 .3 -.2 1163.03 -1788.58)" xlink:href="#id-913h"/><radialGradient id="id-965ah" cx="947.97" cy="-5056.4" r="2" gradientTransform="matrix(.56 .83 .3 -.2 1163.03 -1788.58)" xlink:href="#id-913h"/><radialGradient id="id-966ai" cx="947.97" cy="-5056.4" r="1.58" gradientTransform="matrix(.56 .83 .3 -.2 1163.03 -1788.58)" xlink:href="#id-913h"/><radialGradient id="id-967aj" cx="368.34" cy="-2873.11" r="1.67" gradientTransform="matrix(.81 .6 .24 -.33 541.73 -1137.89)" xlink:href="#id-913h"/><radialGradient id="id-968ak" cx="368.34" cy="-2873.11" r="1.16" gradientTransform="matrix(.81 .6 .24 -.33 541.73 -1137.89)" xlink:href="#id-913h"/><radialGradient id="id-969al" cx="368.34" cy="-2873.11" r=".92" gradientTransform="matrix(.81 .6 .24 -.33 541.73 -1137.89)" xlink:href="#id-913h"/><radialGradient id="id-976as" cx="113.84" cy="-791.22" r="24.06" gradientTransform="translate(45.68 816.95)" xlink:href="#id-914i"/><radialGradient id="id-989aF" cx="499.39" cy="-3055.33" r="4.97" gradientTransform="matrix(.95 .31 .14 -.42 44.32 -1390.6)" xlink:href="#id-913h"/><radialGradient id="id-990aG" cx="499.39" cy="-3055.33" r="3.43" gradientTransform="matrix(.95 .31 .14 -.42 44.32 -1390.6)" xlink:href="#id-913h"/><radialGradient id="id-991aH" cx="499.39" cy="-3055.33" r="2.72" gradientTransform="matrix(.95 .31 .14 -.42 44.32 -1390.6)" xlink:href="#id-913h"/><radialGradient id="id-992aI" cx="1294.16" cy="-3696.97" r="3.18" gradientTransform="matrix(1.3 .66 .2 -.39 -846.62 -2263.9)" xlink:href="#id-913h"/><radialGradient id="id-993aJ" cx="1294.16" cy="-3696.97" r="2.19" gradientTransform="matrix(1.3 .66 .2 -.39 -846.62 -2263.9)" xlink:href="#id-913h"/><radialGradient id="id-994aK" cx="1294.16" cy="-3696.97" r="1.74" gradientTransform="matrix(1.3 .66 .2 -.39 -846.62 -2263.9)" xlink:href="#id-913h"/><radialGradient id="id-995aL" cx="934.81" cy="-4905.19" r="2.89" gradientTransform="matrix(.87 .49 .18 -.32 190.42 -2003.99)" xlink:href="#id-913h"/><radialGradient id="id-996aM" cx="934.81" cy="-4905.19" r="2" gradientTransform="matrix(.87 .49 .18 -.32 190.42 -2003.99)" xlink:href="#id-913h"/><radialGradient id="id-997aN" cx="934.81" cy="-4905.19" r="1.58" gradientTransform="matrix(.87 .49 .18 -.32 190.42 -2003.99)" xlink:href="#id-913h"/><radialGradient id="id-998aO" cx="374.47" cy="-2736.08" r="1.67" gradientTransform="matrix(.99 .17 .07 -.4 -75.06 -1144.39)" xlink:href="#id-913h"/><radialGradient id="id-999aP" cx="374.47" cy="-2736.08" r="1.16" gradientTransform="matrix(.99 .17 .07 -.4 -75.06 -1144.39)" xlink:href="#id-913h"/><radialGradient id="id-1000aQ" cx="374.47" cy="-2736.08" r=".92" gradientTransform="matrix(.99 .17 .07 -.4 -75.06 -1144.39)" xlink:href="#id-913h"/><radialGradient id="id-1002aS" cx="132.03" cy="90.51" r="141" gradientTransform="matrix(1 0 0 -1 0 133.56)" gradientUnits="userSpaceOnUse"><stop offset=".66" stop-color="#ff0e8e" stop-opacity="0"/><stop offset=".94" stop-color="#ff1b56"/></radialGradient><radialGradient id="id-1003aT" cx="116.03" cy="27.02" r="156" gradientTransform="matrix(1 0 0 -1 0 133.56)" gradientUnits="userSpaceOnUse"><stop offset=".66" stop-color="#fd00cc" stop-opacity="0"/><stop offset=".94" stop-color="#fd00cc"/></radialGradient><radialGradient id="id-1011bb" cx="184.15" cy="-799.76" r="24.06" gradientTransform="rotate(-21.9 2311.496 -369.433)" xlink:href="#id-914i"/><radialGradient id="id-1024bo" cx="561.2" cy="-2976.57" r="4.97" gradientTransform="matrix(1 .01 0 -.44 -377 -1264.18)" xlink:href="#id-913h"/><radialGradient id="id-1025bp" cx="561.2" cy="-2976.57" r="3.43" gradientTransform="matrix(1 .01 0 -.44 -377 -1264.18)" xlink:href="#id-913h"/><radialGradient id="id-1026bq" cx="561.2" cy="-2976.57" r="2.72" gradientTransform="matrix(1 .01 0 -.44 -377 -1264.18)" xlink:href="#id-913h"/><radialGradient id="id-1027br" cx="1332.51" cy="-3597.71" r="3.18" gradientTransform="matrix(1.44 .23 .07 -.43 -1493.69 -1820.43)" xlink:href="#id-913h"/><radialGradient id="id-1028bs" cx="1332.51" cy="-3597.71" r="2.19" gradientTransform="matrix(1.44 .23 .07 -.43 -1493.69 -1820.43)" xlink:href="#id-913h"/><radialGradient id="id-1029bt" cx="1332.51" cy="-3597.71" r="1.74" gradientTransform="matrix(1.44 .23 .07 -.43 -1493.69 -1820.43)" xlink:href="#id-913h"/><radialGradient id="id-1030bu" cx="988.66" cy="-4778.67" r="2.89" gradientTransform="matrix(.98 .2 .07 -.36 -427.03 -1892.74)" xlink:href="#id-913h"/><radialGradient id="id-1031bv" cx="988.66" cy="-4778.67" r="2" gradientTransform="matrix(.98 .2 .07 -.36 -427.03 -1892.74)" xlink:href="#id-913h"/><radialGradient id="id-1032bw" cx="988.66" cy="-4778.67" r="1.58" gradientTransform="matrix(.98 .2 .07 -.36 -427.03 -1892.74)" xlink:href="#id-913h"/><radialGradient id="id-1033bx" cx="440.43" cy="-2674.75" r="1.67" gradientTransform="matrix(.99 -.14 -.06 -.41 -414.7 -993.16)" xlink:href="#id-913h"/><radialGradient id="id-1034by" cx="440.43" cy="-2674.75" r="1.16" gradientTransform="matrix(.99 -.14 -.06 -.41 -414.7 -993.16)" xlink:href="#id-913h"/><radialGradient id="id-1035bz" cx="440.43" cy="-2674.75" r=".92" gradientTransform="matrix(.99 -.14 -.06 -.41 -414.7 -993.16)" xlink:href="#id-913h"/></defs><path d="M15.7 13.6v17l-15 3z" fill="url(#id-915j)"/><path d="M40.7 20.6l-32 10 15 51 19 5z" fill="#ff3cca"/><path d="M.7 33.6l16 48h7l-15-51z" fill="url(#id-916k)"/><path d="M19.4 38.2l21.3-17.6 12 28z" fill="#ba006f"/><path d="M44.3 88.6l-2-.5-18.2-4.9h-3.8a6.6 6.6 0 01-6.2-4.7l-1.6-4.6L.3 37.1a9.1 9.1 0 01.9-6.7l5.3-7.1 5.9-7.9c.9-1.3 1.9-2.5 3.3-2.1s1.5 2.3 1.5 3.8v9.2l20.9-6.5c3.1-.9 4.3 1 5 2.6l11 25.6 1.3 3L43 47.2zM14.2 18.1l-5.3 7.1-5.3 7a5.8 5.8 0 00-.5 4l12.2 36.7 1.5 4.5a3.5 3.5 0 003.5 2.6h4c1 .1 11.4 2.9 16.7 4.4l-1.3-41.5 10.2 3.2-9.7-22.6c-.5-1.1-.5-1.1-1.3-.9L16 29.7l-2 .6v-2c.2.1.2-6.6.2-10.2z" fill="#fbdcc5"/><path d="M41.7 37.7C44.9 48.3 59.3 53.4 73.8 49s23.6-16.5 20.3-27.2c-.8-2.8-1.8-6-1.8-6L39.9 32z" fill="url(#id-909d)"/><path d="M41.7 37.7C44.9 48.3 59.3 53.4 73.8 49s23.6-16.5 20.3-27.2c-.8-2.8-1.8-6-1.8-6L39.9 32z" fill="url(#id-910e)"/><path d="M76 20.8l7.6 23.5c8.4-5.8 13.1-14.6 10.7-22.6-.8-2.8-1.8-6-1.8-6z" style="isolation:isolate" fill="#892603" opacity=".66"/><path d="M71.1 43.1c-14.5 4.4-28-.6-31.2-11.1-1.2-4-.4-8.3 1.7-12.2A15.6 15.6 0 0040.1 32c3.1 10.3 17 15.2 31.5 10.8 8.9-2.7 15.5-8.4 18.8-14.6-4 5.2-10.6 12.2-19.3 14.9z" fill="#fffef0"/><path d="M60.4 5.3C74.9.9 89.2 5.7 92.3 16s-6 22.2-20.5 26.7S43 42.3 39.9 32 46 9.7 60.4 5.3z" fill="url(#id-911f)"/><path d="M85 31.7a21.3 21.3 0 01-3.5 6.5c8.4-5.8 13.4-14.5 11-22.2S82.7 4.4 73.4 3.8c3.5 2.2 9 5.9 11.2 9.6C85.8 15.2 86 21 86 21a27.7 27.7 0 01-1 10.7z" fill="url(#id-912g)"/><path d="M61.8 8.2c11.4-3.5 22.5-.1 24.9 7.6s-5 16.7-16.4 20.2-22.5.1-24.9-7.6 4.9-16.7 16.4-20.2z" fill="url(#id-906a)"/><path d="M61.8 8.4c11.4-3.5 22.5-.1 24.9 7.6s-5 16.7-16.4 20.2-22.5.1-24.9-7.6 5-16.7 16.4-20.2z" fill="url(#id-917l)"/><path d="M61.8 8.4c11.4-3.5 22.5-.1 24.9 7.6s-5 16.7-16.4 20.2-22.5.1-24.9-7.6 5-16.7 16.4-20.2z" fill="url(#id-914i)"/><ellipse cx="66" cy="22.1" rx="21.6" ry="14.5" transform="rotate(-17 65.78 22.144)" stroke-width=".25" stroke-miterlimit="10" stroke="#fef437" fill="none"/><ellipse cx="66" cy="22.1" rx="21.4" ry="14.5" transform="rotate(-17 65.78 22.144)" stroke="#c52609" stroke-width=".1" stroke-miterlimit="10" fill="none"/><path d="M64.1 9.6c6.2 1.1 11.2 4.6 12.8 10s.2 9.1-3 13.1c7.9-4.1 12.4-10.5 10.7-16.1S74 7.7 64.1 9.6z" style="isolation:isolate" fill="#f74000" opacity=".43"/><path d="M45.8 28.5C43.4 20.8 50.7 11.8 62 8.4A40.2 40.2 0 0170.2 7a27.9 27.9 0 00-8.5 1.3c-11.3 3.3-18.5 12.5-16.2 20 1.8 5.8 8.4 9.1 16.6 9-7.9.1-14.5-3.1-16.3-8.8z" fill="#c52609"/><path d="M75.2 23.2c.1.2.1.2-.1.5a4.5 4.5 0 01-1.5 2.8c-1.1 1.2-.5 1.2-1.4 1.7a3.6 3.6 0 01-1.7.7 22 22 0 002.1-.9c.9-.5.3-.5 1.4-1.7a4.7 4.7 0 001.5-2.8c.1-.4 0-.8-.3-.3zm-2.4-12.3c3.4-1 5.8.6 3.1 5.1a25.2 25.2 0 01-11.8 10.3h.1A25.2 25.2 0 0076 16c2.9-4.8.2-6.1-3.2-5.1zm-1.9 2.3a7.9 7.9 0 00-2.9 1.3c-3.2 1.6-7.1 5.2-7.6 5.6s0 0 .4-.1 4.4-4 7.6-5.6a8.1 8.1 0 012.5-1.2zm-1 16.6l1-.3-.6.2a2.5 2.5 0 01-1.5 0h-.3a6.1 6.1 0 011.4.1zm2.1-.7s-.1-.2-.5-.1a.2.2 0 01.3.1c.4.5-.2 1.6-1.2 1.9h-.4l.6-.2c1.1-.1 1.7-.9 1.2-1.7zm4-11.2a8.9 8.9 0 01-1.3 3 12.1 12.1 0 01-3 3.5c-.3.3-.3.3.3.1s0 0 .1-.3a13.8 13.8 0 003-3.5 8.9 8.9 0 001.3-3c-.3 0-.3 0-.4.2zm-2.4 5.8c-.3.5-1.3 2.1-5.2 3.5l-1.8.5 2.2-.7c3.9-1.3 5-2.9 4.8-3.3s.4-.4 0 0z" fill="#ed8507"/><path d="M66.1 21a.2.2 0 01-.1.3 7 7 0 01-2.8 2.2l-.8.2 1-.3a8 8 0 002.8-2.2c.3-.4.2-.6-.1-.2zm2.4-3.6c.4-.1.5.1-.3.3a13.2 13.2 0 00-5 3.7c-.8.9-.2.9.4.7s-.9 0-.2-.8a14.5 14.5 0 015-3.7c1.1-.5.9-.4.1-.2zm-1.1-5.1c.4-.1.5.1-.3.5-7.4 3.4-13.1 11.8-9.3 12.8a5.5 5.5 0 002.8-.2 4 4 0 01-2.4.1c-3.8-1 1.9-9.5 9.5-13.1.5-.1.5-.3-.3-.1zm1.6 8.2a1.5 1.5 0 01-.3.5c-.3.3-3.7 4.2-7.7 6a17.3 17.3 0 01-3.1 1.4c1-.3 2.1-.9 3.3-1.4a36.6 36.6 0 007.7-6c.5-.6.5-.6.1-.5z" fill="#ed8507"/><g opacity=".81" fill="#a60100"><path d="M75.4 23.1c-.3.5-.9 2.9-2.7 4.1s-4.6 1.8-5 2 0 .7.7.9a6.9 6.9 0 004.7-1c.9-.5.3-.5 1.4-1.7a4.7 4.7 0 001.5-2.8c.3-.7-.3-2-.6-1.5zm-2.9-11a36.5 36.5 0 00-11.9 8c-.3.5.5.9.8.6s4.4-4 7.6-5.6c5.1-2.6 6.1-1.2 5.6.7-1.4 4.6-6 7.5-10.6 10.6-.7.4.4 1.2.9.8a25.2 25.2 0 0011.8-10.3c3-5.3-.4-6.6-4.2-4.8z"/><path d="M71.9 29.4c-.6.2-.6.8-1.2 1a2.5 2.5 0 01-1.5 0h-.4c-.3.3-.2.7-.1 1.1s1.5.6 2.7.3a2 2 0 001.2-1.8c-.1-.1-.3-.7-.7-.6zM76 17.9a14 14 0 01-5 7.2c-4.5 3.1-10.3 3.1-10.5 3.2s.5.9.8 1.1 3.3.7 8.4-1.5 4.9-3 5-3.5-.1-1.1-.4-.7a4.3 4.3 0 01-1.8 1.2c-.4.1-.1.5.3.1a13.8 13.8 0 003-3.5 8.9 8.9 0 001.3-3c-.3-.1-.8-1.1-1.1-.6zm-11.9 4.3a14.5 14.5 0 015-3.7c1.1-.6.4-1.4-.6-1.1a20.2 20.2 0 00-5.7 3.5c-2.6 2.1-2.6 4.9 1 3.4a8 8 0 002.8-2.2c.3-.3-.4-1.4-.8-1.1s-.9 1.2-1.7 1.6-.8.5 0-.4z"/><path d="M69.6 21.8c.5-.6.1-1.8-.6-1.1s-7.3 6.8-10.3 6 1.9-9.5 9.5-13.1c.9-.5.4-1.4-.6-1.1C61.2 15.1 50.7 25.3 54 29c1.3 1.5 4.8.7 8-.9a38.6 38.6 0 007.6-6.3z"/></g><path d="M75.2 23.2a11.5 11.5 0 01-3.2 3.1 12.6 12.6 0 01-4.8 1.9c-.4.1 0 .7.7.9a6.9 6.9 0 004.7-1c.9-.5.3-.5 1.4-1.7a4.7 4.7 0 001.5-2.8c.1-.5 0-.9-.3-.4z" fill="url(#id-907b)" stroke="url(#id-908c)" stroke-width=".25" stroke-miterlimit="10"/><path d="M71.8 11.2a30.5 30.5 0 00-11.3 8.4c-.3.5-.1.5.3.1s4.4-4 7.6-5.6c5.1-2.6 6.1-1.2 5.6.7-1.4 4.6-4.9 8-9.8 11.2-.7.4-.7.6.1.2a25.2 25.2 0 0011.8-10.3c3.2-5-.5-6.3-4.3-4.7z" fill="url(#id-918m)" stroke="url(#id-919n)" stroke-width=".25" stroke-miterlimit="10"/><path d="M71.4 29.3l-1.4.4a2.5 2.5 0 01-1.5 0h-.4c-.3.3-.2.7-.1 1.1s1.5.6 2.7.3 1.5-1.3 1.2-1.9.1-.3-.5.1z" fill="url(#id-920o)" stroke="url(#id-921p)" stroke-width=".25" stroke-miterlimit="10"/><path d="M75.7 18.3a13.7 13.7 0 01-5.3 6 28.2 28.2 0 01-9.8 4.1c-.4.1-.4.1-.1.3s3.3.7 8.4-1.5 4.9-3 5-3.5.1-.5-.3-.1a2.9 2.9 0 01-1.3.8c-.4.1-.6.2-.3-.1a13.8 13.8 0 003-3.5 8.9 8.9 0 001.3-3c0-.2-.3-.1-.6.5z" fill="url(#id-922q)" stroke="url(#id-923r)" stroke-width=".25" stroke-miterlimit="10"/><path d="M63.6 21.3a14.5 14.5 0 015-3.7c1.1-.6.7-.6-.1-.2a16.6 16.6 0 00-5.2 2.9c-2.9 2-3.5 4.8.1 3a8 8 0 002.8-2.2c.5-.4.3-.5-.1-.2a6.7 6.7 0 01-1.9 1c-.8.3-1.4.5-.6-.6z" fill="url(#id-924s)" stroke="url(#id-925t)" stroke-width=".25" stroke-miterlimit="10"/><path d="M68.9 21c.5-.6.3-.5-.3-.1s-7.4 5.7-10.7 4.8 1.9-9.5 9.5-13.1c.9-.5.7-.6-.1-.4-6.4 2.6-17.4 11.8-13.9 15.7 1.3 1.5 4.8.7 8-.9a26.5 26.5 0 007.5-6z" fill="url(#id-926u)" stroke="url(#id-927v)" stroke-width=".25" stroke-miterlimit="10"/><path d="M71.3 26.7c.4-.1.5-.4.9-.7a12.6 12.6 0 01-4.8 1.9c-.2.1-.1.3-.1.5a10.5 10.5 0 004-1.7zm3.9-3.5c-.1.3-.3.3-.5.6v.2a4.5 4.5 0 01-1.5 2.8 1.9 1.9 0 00-.9 1.4h.2c.9-.5.3-.5 1.4-1.7a4.7 4.7 0 001.5-2.8c.2-.6.1-1-.2-.5zm-11 2.9l-.5.4 1.8-1.2a14.8 14.8 0 00-1.3.8zm1.1-9.9a59.4 59.4 0 00-4.9 3.9h.4a34.5 34.5 0 014.5-3.9zm6.5-5a29.5 29.5 0 00-5.9 3.3 21.7 21.7 0 015-2.8c3.9-1.6 7.4-.5 4.3 4.8a27.2 27.2 0 01-6.6 7.4 25.1 25.1 0 007.6-7.9c3.1-5.1-.6-6.4-4.4-4.8zm.2 17.9s-.1-.2-.5-.1l-1.4.4a2.5 2.5 0 01-1.5 0h-.4c-.2 0-.1.3-.1.3h1.1l1.4-.4c.4-.1.4-.1.5.1s0 .9-.2 1.4a1.2 1.2 0 001.1-1.7zm-11.6-.5a25.7 25.7 0 009.1-3.6l.5-.4a32.3 32.3 0 01-9.5 3.8c-.4 0-.4 0-.1.2zm13.2-4.9l-.5.4a.2.2 0 01-.1.3c-.1.3-.5.6-1.3 1.3a5.5 5.5 0 001.9-2c.4-.2.4-.4 0 0zm2.1-5.4c.1.2-.1.3-.2.7a6.6 6.6 0 01-1.2 2.5 12.1 12.1 0 01-3 3.5c-.3.3-.3.3.3.1a4.1 4.1 0 001.3-.8h-.4c-.4.1-.6.2-.3-.1a13.8 13.8 0 003-3.5 8.9 8.9 0 001.3-3c-.2-.1-.5 0-.8.6z" fill="#feba17"/><path d="M68.3 17.5a16.8 16.8 0 00-4.9 2.6 13.8 13.8 0 014-1.9l.8-.2h.2c1.1-.9.9-.8-.1-.5zM66.1 21a6.7 6.7 0 01-1.9 1c-.8.2-1.4.4-.6-.7a6.1 6.1 0 012-1.9 10.4 10.4 0 00-2.8 2.4c-.8 1.1-.2.9.6.7s1.5-.9 1.9-1 .6-.2.3.1-.7.6-1.1 1.2l2.1-1.7c.1-.3-.2-.5-.5-.1z" fill="#feba17"/><path d="M67.4 12.3a38.2 38.2 0 00-6.3 3.6 20.7 20.7 0 015.4-2.9l.6-.2h.2c1.1-.6.9-.7.1-.5zM63.6 15c-5.9 4-9.7 10.3-6.3 11.3s7.5-2.5 9.6-4c-2.3 1.6-6.5 4.2-8.9 3.6s.1-6.8 5.6-10.9zm5 5.8l-.3.3c.2-.1.2-.1-.1.5a22.5 22.5 0 01-4.8 4.3 29.5 29.5 0 005.5-4.7c.7-.9.5-.8-.3-.4z" fill="#feba17"/><path d="M75.4 23.1zm-1.2 3l-.6.8c.2-.1.3-.3.5-.6s.7-.6.8-.9-.4.4-.7.7zm-1.5 1.7a6.9 6.9 0 01-4.7 1c-.5-.1-.8-.4-.8-.6s0 .7.7.9a6.9 6.9 0 004.7-1l.7-.6c-.2 0-.4.3-.6.3zM64.4 26l-.6.2c-.3.3-.3.3.3.1a26.3 26.3 0 0011-8.8c-3.9 5.4-8.9 8-10.7 8.5zm9.5-10.9a12.3 12.3 0 01-1.9 3.8 15.5 15.5 0 002-4.1c.5-1.9-.6-3.3-5.6-.7-3.2 1.6-7.1 5.2-7.6 5.6s-.5.4-.3-.1a.2.2 0 00-.1.3c-.3.5-.1.5.3.1s4.4-4 7.6-5.6c4.9-2.8 6.3-1.2 5.6.7zm-2.8 15.8c-.9.5-2.2.5-2.7-.3a1 1 0 010-.9h-.2c-.3.3-.2.7-.1 1.1s1.5.6 2.7.3a2 2 0 001.2-1c-.2.4-.6.5-.9.8zm1.1-6.8a.2.2 0 00-.1.3 8.5 8.5 0 002.2-2.6 7.9 7.9 0 01-2.1 2.3zm3.6-6.1a.2.2 0 00-.1.3 6.9 6.9 0 01-1 1.8 6.8 6.8 0 001.1-2.1zM69 27c-5.2 2-8 1.6-8.4 1.5s-.4.1-.1.3 3.3.7 8.4-1.5 4.9-3 5-3.5-1.6 1.8-4.9 3.2z" fill="#fffefb"/><path d="M63.5 23.1c-2.5 1.2-3 .3-1.9-1.2-1.1 1.4-.9 2.7 1.7 1.4a8 8 0 002.8-2.2.2.2 0 00.1-.3 5.4 5.4 0 01-2.7 2.3zm5.6-5.9h-.4a13.2 13.2 0 00-5 3.7v.3a14.5 14.5 0 015-3.7c.4-.3.6-.3.4-.3z" fill="#fffefb"/><path d="M69 20.7c-.3.3-3.7 4.2-7.7 6s-6.6 2.5-8 .9-.5-3.1.8-5.2c-1.5 2.2-2.2 4.1-.9 5.5s4.8.7 8-.9a36.6 36.6 0 007.7-6c.1-.3.3-.3.1-.3zm-1-8.6h-.4a23.5 23.5 0 00-9 7.5 24.3 24.3 0 018.9-7.3c.5 0 .7 0 .5-.2zm-7.1 32.6l4.7-1.9-5.2 1.6-4.6-2.5 4.2 2.6-4.6 1.9 5.1-1.6 4.7 2.5z" fill="#fffefb"/><path d="M55.6 44.1c-.1 1.1 2 2.4 4.7 2.7s5.1-.5 5.1-1.8-2-2.4-4.7-2.7-5.1.5-5.1 1.8z" fill="url(#id-913h)"/><path d="M57.1 44.3c-.2.9 1.4 1.7 3.4 1.8s3.6-.4 3.6-1.1-1.4-1.7-3.4-1.8-3.6.3-3.6 1.1z" fill="url(#id-928w)"/><path d="M57.8 44.3c0 .7 1.1 1.4 2.6 1.4s2.8-.2 2.8-.8-1.1-1.4-2.6-1.4-2.8.2-2.8.8z" fill="url(#id-929x)"/><path d="M56.3 44.3l4.5-.2H56l-4.2-2.4 3.8 2.3-4.4.5h4.7l4.2 2.4z" style="isolation:isolate" opacity=".64" fill="#fffefb"/><path d="M51.6 43.2c-.2.7 1.7 1.9 4.2 2.4s4.7.5 4.9-.2-1.7-1.9-4.2-2.4-4.7-.5-4.9.2z" fill="url(#id-930y)"/><path d="M53 43.4c-.1.5 1.3 1.3 2.9 1.7s3.1.3 3.4-.2-1.3-1.3-2.9-1.7-3.4-.2-3.4.2z" fill="url(#id-931z)"/><path d="M53.5 43.7c-.1.5 1 1 2.3 1.2s2.5.3 2.6.1-1-1-2.3-1.2-2.5-.6-2.6-.1z" fill="url(#id-932A)"/><path d="M78.2 7.9h-.3l-2.4-1.7 2.2 1.7-2.9.2h3l2.5 1.8z" fill="#fffefb"/><path d="M75.1 7.1c-.3.5.9 1.5 2.5 1.8s2.9.4 3-.3-.9-1.5-2.5-1.8-2.7-.2-3 .3z" fill="url(#id-933B)"/><path d="M76 7.3c-.1.5.7.9 1.7 1.2s2 .2 2.1-.2-.6-.7-1.6-1-2-.3-2.2 0z" fill="url(#id-934C)"/><path d="M76.3 7.6c-.1.3.4.7 1.4 1.1s1.6.2 1.7-.1-.4-.7-1.4-1.1-1.6-.3-1.7.1z" fill="url(#id-935D)"/><path d="M63.1 29l1.5-.9-1.5.7-1.7-.3 1.5.6-1.5.7 1.7-.8 1.7.6z" fill="#fffefb"/><path d="M61.4 29.1c.1.4.8.6 1.7.6a2.2 2.2 0 001.7-.7c-.1-.4-.8-.6-1.7-.6s-1.8.3-1.7.7z" fill="url(#id-936E)"/><path d="M61.8 29a1.5 1.5 0 001.2.5c.7 0 1.2-.4 1.1-.6a1.5 1.5 0 00-1.2-.5c-.6.2-1 .3-1.1.6z" fill="url(#id-937F)"/><path d="M62.1 29.1c.1.2.3.3 1 .4s1-.3.9-.5-.3-.3-1-.4-.8.3-.9.5z" fill="url(#id-938G)"/><path d="M118.2 23.1c-4.2 10.2 3.6 23.3 17.6 29.1s28.7 2.3 33-8.1l2.4-5.8-50.7-20.8s-.2.6-2.3 5.6z" fill="url(#id-939H)"/><path d="M118.2 23.1c-4.2 10.2 3.6 23.3 17.6 29.1s28.7 2.3 33-8.1l2.4-5.8-50.7-20.8s-.2.6-2.3 5.6z" fill="url(#id-940I)"/><path d="M155.5 31.8l-9.1 23c10.2.9 19.4-2.9 22.6-10.6l2.4-5.8z" style="isolation:isolate" fill="#892603" opacity=".66"/><path d="M137.5 45.9c-14-5.8-21.2-18.2-17-28.4a16.4 16.4 0 019.1-8.4 15.7 15.7 0 00-8.9 8.4c-4.1 10 3.4 22.6 17.4 28.4a31.8 31.8 0 0023.8.7c-6.4 1.6-15.9 2.8-24.4-.7z" fill="#fffef0"/><path d="M153.3 10c14 5.8 22 18.6 17.8 28.5s-18.8 13.3-32.8 7.5-22-18.6-17.8-28.5 18.9-13.3 32.8-7.5z" fill="url(#id-941J)"/><path d="M155.5 45.9a20.6 20.6 0 01-6.8 2.8c10.2.9 19.5-2.7 22.6-10.2s-.2-15.2-7-21.6c1.3 3.9 3.1 10.3 2.5 14.5-.2 2.2-3.7 6.8-3.7 6.8a27.8 27.8 0 01-7.6 7.7z" fill="url(#id-942K)"/><path d="M152.5 13c11 4.6 17.4 14.3 14.4 21.7s-14.5 9.7-25.5 5.1S124 25.5 127 18.1s14.5-9.7 25.5-5.1z" fill="url(#id-943L)"/><path d="M152.4 13.2c11 4.6 17.4 14.3 14.4 21.7s-14.5 9.7-25.5 5.1-17.4-14.2-14.4-21.7 14.5-9.7 25.5-5.1z" fill="url(#id-944M)"/><path d="M152.4 13.2c11 4.6 17.4 14.3 14.4 21.7s-14.5 9.7-25.5 5.1-17.4-14.2-14.4-21.7 14.5-9.7 25.5-5.1z" fill="url(#id-945N)"/><ellipse cx="146.9" cy="26.4" rx="14.5" ry="21.6" transform="rotate(-67.4 146.982 26.319)" stroke-width=".25" stroke-miterlimit="10" stroke="#fef437" fill="none"/><ellipse cx="146.9" cy="26.4" rx="14.5" ry="21.4" transform="rotate(-67.4 146.982 26.319)" stroke="#c52609" stroke-width=".1" stroke-miterlimit="10" fill="none"/><path d="M153.5 15.7c4.1 4.8 5.7 10.7 3.5 15.9s-5.6 7.1-10.6 8.2c8.7 1.8 16.3-.2 18.5-5.6s-2.6-13.8-11.4-18.5z" style="isolation:isolate" fill="#f74000" opacity=".43"/><path d="M127.3 18.5c3.1-7.5 14.4-9.8 25.3-5.2a37.1 37.1 0 017.3 4.1 29 29 0 00-7.4-4.4c-10.9-4.5-22.3-2.1-25.3 5.2-2.3 5.6.7 12.4 7.1 17.6-6.2-5.1-9.3-11.7-7-17.3z" fill="#c52609"/><path d="M153.4 33.2c-.1.2-.1.2-.4.3a4.4 4.4 0 01-3 1.2c-1.7.2-1.2.6-2.2.4a5.3 5.3 0 01-1.8-.5c.8.3 1.6.4 2.2.7s.5-.2 2.2-.4a4.4 4.4 0 003-1.2c.4-.4.5-.8 0-.5zm5.9-11.1c3.3 1.4 4.1 4.2-.9 5.9a25 25 0 01-15.7.4h-.2l.4.2a25.8 25.8 0 0015.7-.4c5.3-1.9 4-4.7.7-6.1zm-2.9.6a9.9 9.9 0 00-3-.8c-3.5-.8-8.8-.5-9.4-.5s0 0 .4.2a51.1 51.1 0 019.4.5 7.1 7.1 0 012.6.6zM145 34.9l1 .4-.6-.2a2.9 2.9 0 01-1.2-.9h-.2c.2-.1.5.2 1 .7zm2.1.8s.1-.2-.3-.4a.2.2 0 01.1.3c0 .7-1.1 1.1-2.1.7l-.4-.2.6.2c1 .5 2 .3 2.1-.6zm10.2-6.1a8.9 8.9 0 01-2.9 1.5 12 12 0 01-4.6.8c-.5 0-.5 0 .1.3s0 0 .3-.1a15.3 15.3 0 004.6-.8 10.3 10.3 0 002.9-1.5c-.1-.3-.1-.3-.4-.2z" fill="#ed8507"/><path d="M151.8 32.5c-.5.2-2.4.8-6.3-.6l-1.7-.7 2.1.9c4 1.4 5.8.8 5.9.4s.5 0 0 0zm-4.1-6.9a.2.2 0 01-.3.1 6.9 6.9 0 01-3.5-.1l-.8-.3 1 .4a8.3 8.3 0 003.5.1c.5 0 .6-.2.1-.2zm4.1-1.2c.4.2.3.4-.5 0a13.6 13.6 0 00-6.2-.3c-1.2.2-.7.6-.1.8s-.7-.5.3-.8a13.6 13.6 0 016.2.3c1.3.4 1.1.3.3 0zm2.4-4.6c.4.2.3.4-.5.2-7.9-2.1-17.6.8-15.4 4a5.2 5.2 0 002.3 1.6 3.4 3.4 0 01-1.9-1.5c-2.3-3.2 7.5-6.1 15.6-4.1.6.3.7.1-.1-.2zm-3.9 7.3l-.5.2c-.5 0-5.5.9-9.8-.2a16.8 16.8 0 01-3.2-.9 27.5 27.5 0 003.4 1 32 32 0 009.8.2c.6-.1.6-.1.3-.3z" fill="#ed8507"/><g opacity=".81" fill="#a60100"><path d="M153.6 33.2c-.5.2-2.5 1.7-4.6 1.4a27.6 27.6 0 01-5.1-1.7c-.4-.2-.4.5 0 1.1a6.4 6.4 0 004.2 2.2c1 .2.5-.2 2.2-.4a4.4 4.4 0 003-1.2c.4-.2.8-1.6.3-1.4zm4.7-10.4a36.7 36.7 0 00-14.2-1.4c-.5.2-.2 1 .3 1a51.1 51.1 0 019.4.5c5.6 1.2 5.5 3 3.9 4.1-4 2.6-9.4 2-15 1.4-.8-.1-.5 1.2.2 1.2a25.8 25.8 0 0015.7-.4c5.6-2.1 3.8-5.3-.3-6.4z"/><path d="M146.9 35.8c-.6-.2-1 .3-1.6 0a4.1 4.1 0 01-1.2-.9l-.4-.2c-.5 0-.6.4-.8.8s.8 1.4 1.9 1.9 1.9-.1 2.1-.7.4-.7 0-.9zm10.4-6.2a14.6 14.6 0 01-8.4 2.4c-5.4-.5-10-4.1-10.2-4.2s-.2 1-.1 1.3 2 2.6 7.5 4.2 5.7.8 6.1.5.6-.9.1-.8a6 6 0 01-2.2-.2c-.4-.2-.4.3.1.3a15.3 15.3 0 004.6-.8 10.3 10.3 0 002.9-1.5c0-.4.2-1.4-.4-1.2zm-11.9-4.3a13.6 13.6 0 016.2.3c1.2.3 1.2-.8.3-1.2a20.8 20.8 0 00-6.6-.9c-3.4 0-5.2 2.1-1.4 3.3a8.3 8.3 0 003.5.1c.5 0 .6-1.3.1-1.3a14 14 0 01-2.3.2c-.5-.5-1-.3.2-.5z"/><path d="M149.9 28.6c.7-.1 1.2-1.3.3-1.2s-9.9.6-11.8-2 7.5-6.1 15.6-4.1c1 .2 1.2-.8.3-1.2-6.6-2.1-21.2-.9-21 4.1.1 2 3.2 3.6 6.7 4.4a49.8 49.8 0 009.9 0z"/></g><path d="M153.4 33.2a11.3 11.3 0 01-4.4.4 13.3 13.3 0 01-5-1.6c-.4-.2-.4.5 0 1.1a6.4 6.4 0 004.2 2.2c1 .2.5-.2 2.2-.4a4.4 4.4 0 003-1.2c.4-.4.5-.8 0-.5z" fill="url(#id-946O)" stroke="url(#id-947P)" stroke-width=".25" stroke-miterlimit="10"/><path d="M158.3 21.7a31.3 31.3 0 00-14.1-.7c-.5.2-.4.3.1.3a51.1 51.1 0 019.4.5c5.6 1.2 5.5 3 3.9 4.1-4 2.6-8.9 3-14.7 2.4-.8-.1-.9.1-.1.2a25.8 25.8 0 0015.7-.4c5.8-1.9 3.8-5.2-.2-6.4z" fill="url(#id-948Q)" stroke="url(#id-949R)" stroke-width=".25" stroke-miterlimit="10"/><path d="M146.6 35.5l-1.3-.6a2.9 2.9 0 01-1.2-.9l-.4-.2c-.5 0-.6.4-.8.8s.8 1.4 1.9 1.9 2-.1 2.1-.7.3-.3-.3-.3z" fill="url(#id-950S)" stroke="url(#id-951T)" stroke-width=".25" stroke-miterlimit="10"/><path d="M156.9 29.7a14.4 14.4 0 01-7.9 1.2 28.9 28.9 0 01-10.2-3.1c-.4-.2-.4-.2-.3.1s2 2.6 7.5 4.2 5.7.8 6.1.5.4-.3-.1-.3a2.7 2.7 0 01-1.5-.2c-.4-.2-.6-.2-.1-.3a15.3 15.3 0 004.6-.8 10.3 10.3 0 002.9-1.5c-.1.1-.5-.1-1 .2z" fill="url(#id-952U)" stroke="url(#id-953V)" stroke-width=".25" stroke-miterlimit="10"/><path d="M145.6 24.3a13.6 13.6 0 016.2.3c1.2.3.9-.1.1-.2a14.8 14.8 0 00-5.8-1.1c-3.5-.3-5.8 1.4-1.9 2.4a8.3 8.3 0 003.5.1c.7 0 .5-.2.1-.2l-2.1-.4c-.8-.3-1.4-.5-.1-.9z" fill="url(#id-954W)" stroke="url(#id-955X)" stroke-width=".25" stroke-miterlimit="10"/><path d="M149.9 27.4c.7-.1.5-.2-.1-.3s-9.3-.3-11.3-3.1 7.5-6.1 15.6-4.1c1 .2.9-.1.2-.4-6.6-2.1-21-2-20.7 3.3.1 2 3.2 3.6 6.7 4.4a23.2 23.2 0 009.6.2z" fill="url(#id-956Y)" stroke="url(#id-957Z)" stroke-width=".25" stroke-miterlimit="10"/><path d="M148.1 33.4c.4.2.7 0 1.1 0a13.3 13.3 0 01-5-1.6c-.2-.1-.3.1-.4.3a10.4 10.4 0 004.3 1.3zm5.3-.2h-.7v.2a4.4 4.4 0 01-3 1.2 2 2 0 00-1.5.5h.2c1 .2.5-.2 2.2-.4a4.4 4.4 0 003-1.2c.3-.4.4-.8-.1-.5zM143 28.4h-.7l2.2.2zm7.1-6.9a44.8 44.8 0 00-6.2-.1l.4.2a30.6 30.6 0 015.8-.1zm8.2.2a25 25 0 00-6.7-1.2 24.4 24.4 0 015.7 1c4 1.2 6.1 4.3.3 6.4a27.1 27.1 0 01-9.9 1.5 24.2 24.2 0 0010.9-1.3c5.7-1.9 3.7-5.2-.3-6.4zm-11.2 14s.1-.2-.3-.4l-1.3-.6-1.2-.9-.4-.2a.2.2 0 00-.3.1l.9.6 1.3.6c.4.2.4.2.3.4s-.5.7-1.1.9c1 .6 2.1.2 2.1-.5zm-8.6-7.8a24.1 24.1 0 009.3 3c.2.1.5 0 .7 0a31.1 31.1 0 01-9.7-3.1c-.4-.1-.4-.2-.3.1zm13.3 4.6c-.2-.1-.5 0-.7 0a.2.2 0 01-.3.1h-1.9a4.6 4.6 0 002.9-.2c.4.3.5.1 0 .1z" fill="#feba17"/><path d="M156.9 29.7c-.1.2-.3.1-.6.4a8.2 8.2 0 01-2.5 1.2 12 12 0 01-4.6.8c-.5 0-.5 0 .1.3a4.1 4.1 0 001.5.2l-.4-.2c-.4-.2-.6-.2-.1-.3a15.3 15.3 0 004.6-.8 10.3 10.3 0 002.9-1.5c0-.2-.4-.4-.9-.1zm-5.3-5.4a15.8 15.8 0 00-5.4-1.1 12 12 0 014.3 1.1l.8.3h.2c1.3.1 1.1 0 .1-.4zm-3.9 1.3l-2.1-.4c-.8-.3-1.3-.6-.1-.9a7.1 7.1 0 012.8-.2 8 8 0 00-3.6.1c-1.3.4-.7.6.1.9a12.3 12.3 0 002.1.4c.5 0 .6.2.1.3l-1.7.2a23.1 23.1 0 002.7 0c.3-.1.2-.4-.3-.4z" fill="#feba17"/><path d="M154.2 19.8a34.8 34.8 0 00-7.2-1.2 22.7 22.7 0 016 1.2l.6.2h.2c1.3.4 1.2.1.4-.2zm-4.6-.3c-7.1-.7-14 1.8-12 4.7s7.4 2.8 10 3c-2.8-.3-7.7-.9-9.1-2.9s4.3-5.2 11.1-4.8zm.2 7.7h-.5c.2.1.2.1-.4.3a27.4 27.4 0 01-6.4.3 34.3 34.3 0 007.2-.1c1.1-.3.9-.4.1-.5z" fill="#feba17"/><path d="M153.6 33.2zm-2.9 1.5a1.5 1.5 0 00-1 .3.9.9 0 00.7-.1l1.2-.2c-.2-.1-.4 0-.9 0zm-2.2.5a6.4 6.4 0 01-4.2-2.2 1.6 1.6 0 01-.3-1c-.4-.2-.4.5 0 1.1a6.4 6.4 0 004.2 2.2h.9c-.1-.1-.4 0-.6 0zm-5.3-6.7l-.6-.2c-.5 0-.5 0 .1.3a26.7 26.7 0 0014.1.2 24.6 24.6 0 01-13.6-.3zm14.2-2.4a15.3 15.3 0 01-3.9 1.8 14 14 0 004.1-1.9c1.6-1.1 1.7-2.9-3.9-4.1-3.5-.8-8.8-.5-9.4-.5s-.7 0-.1-.3a.2.2 0 00-.3.1c-.5.2-.4.3.1.3a51.1 51.1 0 019.4.5c5.8 1 5.8 3 4 4.1zm-12.2 10.4c-1-.2-2-1.1-1.9-1.9s.2-.6.5-.7h-.2c-.5 0-.6.4-.8.8s.8 1.4 1.9 1.9a2.2 2.2 0 001.6 0 3.9 3.9 0 01-1.1-.1zm5.3-4.5a.2.2 0 00-.3.1 12.8 12.8 0 003.4-.6 9.9 9.9 0 01-3.1.5zm6.6-2.5a.2.2 0 00-.3.1 15.1 15.1 0 01-1.9.8 5.2 5.2 0 002.2-.9zm-11 2.7c-5.3-1.8-7.2-3.9-7.5-4.2s-.4-.2-.3.1 2 2.6 7.5 4.2 5.7.8 6.1.5a14 14 0 01-5.8-.6z" fill="#fffefb"/><path d="M144.4 25.6c-2.7-.7-2.4-1.7-.7-2.1-1.7.4-2.4 1.5.4 2.2a8.3 8.3 0 003.5.1.2.2 0 00.3-.1 6.9 6.9 0 01-3.5-.1zm8-.9l-.4-.2a13.6 13.6 0 00-6.2-.3h-.3a13.6 13.6 0 016.2.3z" fill="#fffefb"/><path d="M150.2 27.3c-.5 0-5.5.9-9.8-.2s-6.7-2.3-6.7-4.4 1.6-2.7 3.9-3.5c-2.6.7-4.3 1.8-4.2 3.6s3.2 3.6 6.7 4.4a32 32 0 009.8.2c.3-.1.5 0 .3-.1zm4.6-7.3l-.4-.2a23 23 0 00-11.7.1c3.1-1 7.6-.9 11.4 0 .6.3.8.4.7.1zm-26.1 20.7l4.7 1.5-4.9-2.1-2.1-4.9 1.7 4.8-4.8-1.6 5 2.1 2 4.9z" fill="#fffefb"/><path d="M124.9 36.8c-.8.8 0 3.2 1.9 5.1s4.2 2.9 5.1 1.9 0-3.2-1.9-5.1-4.3-2.9-5.1-1.9z" fill="url(#id-958aa)"/><path d="M126 38c-.7.6 0 2.2 1.5 3.5s3 1.9 3.5 1.4 0-2.2-1.5-3.5-3-2.1-3.5-1.4z" fill="url(#id-959ab)"/><path d="M126.5 38.4c-.4.5-.1 1.8 1.1 2.7s2.3 1.6 2.7 1.1.1-1.8-1.1-2.7-2.3-1.6-2.7-1.1z" fill="url(#id-960ac)"/><path d="M125.3 37.4l3.6 2.7-3.7-2.9-1.7-4.6 1.4 4.2-3.7-2.4 3.7 2.9 1.7 4.5z" style="isolation:isolate" opacity=".64" fill="#fffefb"/><path d="M122.4 33.6c-.6.4.1 2.5 1.7 4.5s3.3 3.4 3.9 3-.1-2.5-1.7-4.5-3.3-3.5-3.9-3z" fill="url(#id-961ad)"/><path d="M123.3 34.6c-.4.3.1 1.9 1.2 3.2s2.2 2.3 2.7 2-.1-1.9-1.2-3.2-2.3-2.3-2.7-2z" fill="url(#id-962ae)"/><path d="M123.6 35.2c-.4.3.1 1.4 1 2.4s1.7 1.8 2 1.7-.1-1.4-1-2.4-1.7-2.1-2-1.7z" fill="url(#id-963af)"/><path d="M165.3 23.3l2.3 1.6-2.4-1.9-.8-2.8.6 2.7-2.4-1.7 2.4 1.9.7 3z" fill="#fffefb"/><path d="M163.5 20.7c-.5.2-.3 1.7.8 3s2 2.2 2.4 1.7.3-1.7-.8-3-1.9-1.9-2.4-1.7z" fill="url(#id-964ag)"/><path d="M164.1 21.4c-.4.3 0 1.1.5 2s1.4 1.5 1.8 1.2-.1-.9-.6-1.8-1.4-1.5-1.7-1.4z" fill="url(#id-965ah)"/><path d="M164.1 21.9c-.3.1-.1.8.4 1.7s1.1 1.1 1.4 1 .1-.8-.4-1.7-1-1.3-1.4-1z" fill="url(#id-966ai)"/><path d="M140.3 30l1.7.2-1.6-.4-1-1.3.7 1.4-1.6-.5 1.8.6 1 1.5z" fill="#fffefb"/><path d="M138.9 29c-.2.4.3 1 .9 1.5a2.4 2.4 0 001.8.5c.2-.4-.3-1-.9-1.5s-1.6-.9-1.8-.5z" fill="url(#id-967aj)"/><path d="M139.3 29.1c-.1.2.1.7.6 1.2s1.2.5 1.2.3-.1-.7-.6-1.2-.9-.4-1.2-.3z" fill="url(#id-968ak)"/><path d="M139.4 29.4c-.1.2 0 .5.5.9s1 .4 1 .2a1 1 0 00-.5-.9c-.5-.4-.7-.3-1-.2z" fill="url(#id-969al)"/><path d="M80 29.2c.8 11 13.6 19.2 28.7 18.2s26.7-10.8 25.9-22c-.2-2.9-.4-6.2-.4-6.2l-54.7 4s.1.6.5 6z" fill="url(#id-970am)"/><path d="M80 29.2c.8 11 13.6 19.2 28.7 18.2s26.7-10.8 25.9-22c-.2-2.9-.4-6.2-.4-6.2l-54.7 4s.1.6.5 6z" fill="url(#id-971an)"/><path d="M117.2 20.4l2.1 24.6c9.5-3.8 16.1-11.3 15.5-19.6-.2-2.9-.4-6.2-.4-6.2z" style="isolation:isolate" fill="#892603" opacity=".66"/><path d="M107.4 41.1c-15.1 1-27.1-6.9-27.9-17.8-.3-4.1 1.5-8.2 4.4-11.5a15.3 15.3 0 00-4.2 11.5c.7 10.8 13.2 18.6 28.3 17.6a31.5 31.5 0 0021.6-10c-5.1 4.2-13.1 9.5-22.2 10.2z" fill="#fffef0"/><path d="M105.5 1.9c15.1-1 27.9 6.8 28.7 17.6s-10.9 20.3-26 21.4-27.9-6.8-28.7-17.6 10.9-20.4 26-21.4z" fill="url(#id-972ao)"/><path d="M123.5 33.1a18.9 18.9 0 01-4.8 5.5c9.5-3.8 16.3-11.1 15.7-19.2s-7-13.5-15.9-16.2c2.9 2.9 7.4 7.8 8.7 11.9.8 2-.3 7.7-.3 7.7a28.3 28.3 0 01-3.4 10.3z" fill="url(#id-973ap)"/><path d="M106.2 4.9c11.9-.8 22 5 22.5 13s-8.6 15.2-20.5 16-22-5-22.5-13 8.6-15.1 20.5-16z" fill="url(#id-974aq)"/><path d="M106.2 5.1c11.9-.8 22 5 22.5 13s-8.6 15.2-20.5 16-22-5-22.5-13 8.6-15.1 20.5-16z" fill="url(#id-975ar)"/><path d="M106.2 5.1c11.9-.8 22 5 22.5 13s-8.6 15.2-20.5 16-22-5-22.5-13 8.6-15.1 20.5-16z" fill="url(#id-976as)"/><ellipse cx="107.2" cy="19.4" rx="21.6" ry="14.5" transform="translate(-1.08 7.45)" stroke-width=".25" stroke-miterlimit="10" stroke="#fef437" fill="none"/><ellipse cx="107.2" cy="19.4" rx="21.4" ry="14.5" transform="translate(-1.08 7.45)" stroke="#c52609" stroke-width=".1" stroke-miterlimit="10" fill="none"/><path d="M108.2 6.9c5.8 2.5 9.8 7 10.2 12.6s-1.9 8.9-5.8 12.1c8.6-2.3 14.5-7.5 14.1-13.3s-8.5-11.1-18.5-11.4z" style="isolation:isolate" fill="#f74000" opacity=".43"/><path d="M86 21.1c-.6-8.1 8.5-15.2 20.3-16a33.6 33.6 0 018.4.5 30.7 30.7 0 00-8.6-.7c-11.8.9-20.8 8.1-20.3 16 .4 6 6.2 10.8 14.2 12.5-7.8-1.7-13.5-6.3-14-12.3z" fill="#c52609"/><path d="M115.9 22.6c0 .2 0 .2-.2.4a4.7 4.7 0 01-2.1 2.4c-1.4.9-.8 1.1-1.8 1.4a3.8 3.8 0 01-1.8.3l2.3-.4c1-.3.4-.4 1.8-1.4a4.2 4.2 0 002.1-2.4c.1-.4.1-.8-.3-.3zm.4-12.5c3.5-.2 5.5 1.9 1.9 5.7a24.9 24.9 0 01-13.8 7.4h.2a25.3 25.3 0 0013.8-7.4c3.8-4.1 1.4-6-2.1-5.7zm-2.4 1.8a10.4 10.4 0 00-3.1.6c-3.5.9-8.1 3.5-8.7 3.7s0 0 .4 0 5.2-2.9 8.7-3.7a6 6 0 012.7-.6zm-4.7 15.9h.4a3.7 3.7 0 01-1.5-.3h-.2zm2.3-.1s0-.2-.4-.2a.2.2 0 01.2.2c.3.6-.5 1.5-1.6 1.6h.2c1.1-.1 1.8-.8 1.6-1.6zm6.4-10a8.2 8.2 0 01-1.9 2.6 12.7 12.7 0 01-3.8 2.8c-.4.2-.4.2.2.2s0 0 .2-.2a15.1 15.1 0 003.8-2.8 8.2 8.2 0 001.9-2.6c-.3-.3-.3-.3-.4 0z" fill="#ed8507"/><path d="M114.2 22.7c-.4.4-1.7 1.8-5.9 2.3h-1.9l2.3-.2c4.2-.5 5.6-1.8 5.5-2.2s.4-.1 0 .1zm-6.7-4.3a.2.2 0 01-.2.2 6.7 6.7 0 01-3.2 1.5h.2a7.8 7.8 0 003.2-1.5c.4-.3.4-.5 0-.2zm3.1-3c.4 0 .4.2-.4.2a13.3 13.3 0 00-5.7 2.5c-1 .7-.4.9.3.8s-.8-.1-.1-.8a13.3 13.3 0 015.7-2.5c1.3-.2 1.1-.2.2-.2zm.1-5.2c.4 0 .4.2-.4.4-8 1.6-15.4 8.6-12 10.4a4.6 4.6 0 002.7.4 3 3 0 01-2.3-.5c-3.5-1.8 4-8.8 12.2-10.6.6.1.6-.1-.2-.1zm-.3 8.4l-.4.4c-.4.2-4.6 3.2-8.9 4.2a12 12 0 01-3.3.6l3.5-.7a31.5 31.5 0 008.9-4.2c.6-.3.6-.3.2-.3z" fill="#ed8507"/><g opacity=".81" fill="#a60100"><path d="M116.1 22.6c-.4.4-1.5 2.6-3.5 3.4a30.5 30.5 0 01-5.4.8c-.4 0-.2.6.5 1a6.6 6.6 0 004.8.1c1-.3.4-.4 1.8-1.4a4.2 4.2 0 002.1-2.4c.4-.5.1-2-.3-1.5zm-.4-11.5a41.3 41.3 0 00-13.4 5.1c-.4.4.3 1 .7.8s5.2-2.9 8.7-3.7c5.5-1.4 6.3.2 5.3 1.9-2.4 4.1-7.5 5.9-12.8 8-.8.3.1 1.2.7 1a25.3 25.3 0 0013.8-7.4c4.2-4.5 1.1-6.6-3-5.7z"/><path d="M111.3 27.9c-.6 0-.8.7-1.4.7a3.7 3.7 0 01-1.5-.3h-.4c-.4.2-.4.6-.3 1.1s1.3.9 2.6.9 1.6-.9 1.6-1.6-.2-.8-.6-.8zm6.6-10.2a15 15 0 01-6.5 5.9c-5.1 2-10.8.7-11 .8s.3 1 .5 1.2 3 1.5 8.6.4 5.5-1.8 5.7-2.3.1-1-.3-.8a6.4 6.4 0 01-2 .8c-.4 0-.2.4.2.2a15.1 15.1 0 003.8-2.8 8.2 8.2 0 001.9-2.6c-.3-.3-.6-1.3-.9-.8zm-12.6 1.4a13.3 13.3 0 015.7-2.5c1.2-.3.7-1.3-.3-1.2a21.6 21.6 0 00-6.3 2.1c-3 1.5-3.7 4.2.2 3.5a7.8 7.8 0 003.2-1.5c.4-.2-.1-1.4-.5-1.2a14.9 14.9 0 01-2 1.2c-.6-.1-1 .3 0-.4z"/><path d="M110.7 20c.6-.5.5-1.7-.3-1.2s-8.6 5-11.4 3.5 4-8.8 12.2-10.6c1-.3.7-1.3-.3-1.2-6.8 1.1-19.4 8.6-17 13 1 1.8 4.5 1.8 8 .9a38.7 38.7 0 008.8-4.4z"/></g><path d="M115.9 22.6a10.9 10.9 0 01-3.8 2.3c-2.2.8-4.9 1-5.1.8s-.2.6.5 1a6.6 6.6 0 004.8.1c1-.3.4-.4 1.8-1.4a4.2 4.2 0 002.1-2.4c.1-.5.1-.9-.3-.4z" fill="url(#id-977at)" stroke="url(#id-978au)" stroke-width=".25" stroke-miterlimit="10"/><path d="M115.3 10.1a30.4 30.4 0 00-12.9 5.7c-.4.4-.2.4.2.2s5.2-2.9 8.7-3.7c5.5-1.4 6.3.2 5.3 1.9-2.4 4.1-6.6 6.7-12.1 8.7-.8.3-.8.5 0 .2a25.3 25.3 0 0013.8-7.4c4.3-4.2 1.1-6.3-3-5.6z" fill="url(#id-979av)" stroke="url(#id-980aw)" stroke-width=".25" stroke-miterlimit="10"/><path d="M110.9 27.7h-1.4a3.7 3.7 0 01-1.5-.3h-.4c-.4.2-.4.6-.3 1.1s1.3.9 2.6.9 1.8-1 1.6-1.6 0-.3-.6-.1z" fill="url(#id-981ax)" stroke="url(#id-982ay)" stroke-width=".25" stroke-miterlimit="10"/><path d="M117.5 17.9a14.4 14.4 0 01-6.5 4.6 31.1 31.1 0 01-10.5 1.8c-.4 0-.4 0-.2.2s3 1.5 8.6.4c4.1-.7 5.5-1.8 5.7-2.3s.2-.4-.2-.2a2.9 2.9 0 01-1.4.5c-.4 0-.6 0-.2-.2a15.1 15.1 0 003.8-2.8 8.2 8.2 0 001.9-2.6c-.2.1-.7.1-1 .6z" fill="url(#id-983az)" stroke="url(#id-984aA)" stroke-width=".25" stroke-miterlimit="10"/><path d="M105 18.1a13.3 13.3 0 015.7-2.5c1.2-.3.8-.5 0-.2A15.5 15.5 0 00105 17c-3.2 1.3-4.5 3.9-.6 3a7.8 7.8 0 003.2-1.5c.6-.3.4-.4 0-.2l-2 .6c-1 .1-1.6.1-.6-.8z" fill="url(#id-985aB)" stroke="url(#id-986aC)" stroke-width=".25" stroke-miterlimit="10"/><path d="M110.2 19c.6-.5.4-.4-.2-.2s-8.5 3.9-11.5 2.3 4-8.8 12.2-10.6c1-.3.8-.5 0-.4-6.8 1.1-19.7 7.6-17 12.2 1 1.8 4.5 1.8 8 .9s8.1-4 8.5-4.2z" fill="url(#id-987aD)" stroke="url(#id-988aE)" stroke-width=".25" stroke-miterlimit="10"/><path d="M111.3 25.2c.4 0 .6-.3 1-.5-2.2.8-4.9 1-5.1.8s-.2.2-.2.4a13.4 13.4 0 004.3-.7zm4.6-2.6c-.2.2-.4.2-.6.5v.2a4.7 4.7 0 01-2.1 2.4 2.5 2.5 0 00-1.2 1.1h.2c1-.3.4-.4 1.8-1.4a4.2 4.2 0 002.1-2.4c.2-.5.2-.9-.2-.4zm-11.4.3c-.2 0-.4.2-.6.3l2-.8c-.4.3-1 .3-1.4.5zm3.3-9.3a50.3 50.3 0 00-5.6 2.7h.4a35.4 35.4 0 015.2-2.7zm7.5-3.5a31.5 31.5 0 00-6.5 1.9 20.9 20.9 0 015.5-1.6c4.1-.7 7.4 1.2 3.1 5.6a27.4 27.4 0 01-8.1 5.8 24.5 24.5 0 009.2-6c4.1-4.3.9-6.4-3.2-5.7zm-3.8 17.6s0-.2-.4-.2h-1.4a3.7 3.7 0 01-1.5-.3h-.4a.2.2 0 00-.2.2 2.8 2.8 0 001 .1h1.4c.4 0 .4 0 .4.2s-.1.8-.5 1.3 1.8-.7 1.6-1.3zm-11.3-3.2a23.8 23.8 0 009.7-1.5l.6-.3a27.6 27.6 0 01-10.1 1.5c-.4.1-.4.1-.2.3zm14-1.8c-.2 0-.4.2-.6.3a.2.2 0 01-.2.2 4.7 4.7 0 01-1.6.9 4 4 0 002.4-1.4c.5 0 .4-.2 0 0zm3.3-4.8c0 .2-.2.2-.4.6a7.5 7.5 0 01-1.7 2.2 12.7 12.7 0 01-3.8 2.8c-.4.2-.4.2.2.2a2.9 2.9 0 001.4-.5h-.4c-.4 0-.6 0-.2-.2a15.1 15.1 0 003.8-2.8 8.2 8.2 0 001.9-2.6c0-.2-.5-.2-.8.3z" fill="#feba17"/><path d="M110.4 15.5a16 16 0 00-5.3 1.4 10.2 10.2 0 014.3-.9h1c1.3-.6 1.1-.6 0-.5zm-2.9 2.9l-2 .6c-.8.1-1.4.1-.5-.8a7.9 7.9 0 012.4-1.4 9.1 9.1 0 00-3.2 1.7c-1 .9-.4.9.5.8a9.8 9.8 0 002-.6c.4-.2.6 0 .2.2l-1.4.9 2.4-1.2c.2-.3 0-.5-.4-.2z" fill="#feba17"/><path d="M110.7 10.2a35.6 35.6 0 00-6.9 2.1 30.4 30.4 0 015.9-1.7h.8c1.2-.2 1-.4.2-.4zm-4.3 1.8c-6.7 2.5-11.7 7.9-8.7 9.5s7.9-.8 10.3-1.8c-2.6 1-7.3 2.6-9.5 1.5s1.7-6.5 7.9-9.2zm3.6 6.8l-.4.2c.2 0 .2 0-.2.4a30.5 30.5 0 01-5.6 3.1 30 30 0 006.4-3.4c.8-.6.6-.5-.2-.3z" fill="#feba17"/><path d="M116.1 22.6zm-1.9 2.6a2.9 2.9 0 00-.8.7c.2 0 .4-.2.6-.5l1-.7c-.2 0-.4.3-.8.5zm-1.8 1.4a6.6 6.6 0 01-4.8-.1 1.3 1.3 0 01-.7-.8c-.4 0-.2.6.5 1a6.6 6.6 0 004.8.1l.8-.5c-.2 0-.4.2-.6.3zm-7.7-3.7h-.6c-.4.2-.4.2.2.2A26.7 26.7 0 00117 17c-4.9 4.4-10.4 5.8-12.3 5.9zm11.7-8.5a12.6 12.6 0 01-2.7 3.3 15.9 15.9 0 002.9-3.5c.9-1.7.2-3.3-5.3-1.9-3.5.9-8.1 3.5-8.7 3.7s-.6.3-.2-.2a.2.2 0 00-.2.2c-.4.4-.2.4.2.2s5.2-2.9 8.7-3.7c5.5-1.6 6.4.2 5.3 1.9zm-6.3 14.8c-1 .3-2.3 0-2.6-.9a2.2 2.2 0 01.1-.8h-.2c-.4.2-.4.6-.3 1.1s1.3.9 2.6.9a1.9 1.9 0 001.4-.7c-.2.2-.6.2-1 .4zm2.7-6.4a.2.2 0 00-.2.2 11.3 11.3 0 002.8-2.1 9.4 9.4 0 01-2.6 1.9zm4.8-5.1a.2.2 0 00-.2.2 10.7 10.7 0 01-1.3 1.5 7 7 0 001.5-1.7zm-8.6 7.2c-5.6.8-8.1-.3-8.6-.4s-.4 0-.2.2 3 1.5 8.6.4 5.5-1.8 5.7-2.3-2 1.5-5.5 2.1z" fill="#fffefb"/><path d="M104.5 19.8c-2.7.6-2.9-.4-1.6-1.6-1.4 1.1-1.5 2.4 1.4 1.8a7.8 7.8 0 003.2-1.5.2.2 0 00.2-.2 5.9 5.9 0 01-3.2 1.5zm6.7-4.4h-.4a13.3 13.3 0 00-5.7 2.5l-.2.2a13.3 13.3 0 015.7-2.5z" fill="#fffefb"/><path d="M110.4 18.8c-.4.2-4.6 3.2-8.9 4.2s-7 .9-8-.9.2-3.1 1.9-4.9c-2 1.8-3.1 3.5-2.1 5.1s4.5 1.8 8 .9a31.5 31.5 0 008.9-4.2c.2-.2.4-.2.2-.2zm.9-8.6h-.4a24.2 24.2 0 00-10.5 5.3 23.8 23.8 0 0110.3-5.1c.6 0 .8 0 .6-.2zM97.2 40.3l4.9-.7-5.4.3-4-3.4 3.6 3.5-4.9.7 5.3-.4 4 3.5z" fill="#fffefb"/><path d="M92 38.6c-.3 1.1 1.4 2.8 4 3.7s5 .7 5.4-.6-1.4-2.8-4-3.7-5-.7-5.4.6z" fill="url(#id-989aF)"/><path d="M93.5 39.1c-.4.9 1 2 2.9 2.5s3.6.4 3.7-.3-1-2-2.9-2.5-3.5-.5-3.7.3z" fill="url(#id-990aG)"/><path d="M94.2 39.3c-.2.6.7 1.6 2.2 1.9s2.7.4 2.9-.2-.7-1.6-2.2-1.9-2.8-.5-2.9.2z" fill="url(#id-991aH)"/><path d="M92.7 39l4.4.7-4.6-.9-3.6-3.3 3.1 3.1-4.4-.5 4.7.9 3.5 3.3z" style="isolation:isolate" opacity=".64" fill="#fffefb"/><path d="M88.4 36.8c-.4.6 1.2 2.2 3.6 3.3s4.5 1.6 4.8.9-1.2-2.2-3.6-3.3-4.4-1.6-4.8-.9z" fill="url(#id-992aI)"/><path d="M89.7 37.3c-.2.4.9 1.6 2.4 2.3s3 1 3.4.6-.9-1.6-2.4-2.3-3.3-1-3.4-.6z" fill="url(#id-993aJ)"/><path d="M90.1 37.7c-.2.4.7 1.2 2 1.7s2.3.9 2.5.7-.7-1.2-2-1.7-2.3-1.2-2.5-.7z" fill="url(#id-994aK)"/><path d="M122.2 8.4l2.7.4-2.9-.6-2-2.1 1.8 2.1-3-.4 3 .6 2 2.4z" fill="#fffefb"/><path d="M119.4 6.9c-.4.4.5 1.6 2 2.4s2.8 1.1 2.9.4-.5-1.6-2-2.4-2.5-.8-2.9-.4z" fill="url(#id-995aL)"/><path d="M120.3 7.3c-.2.4.5 1 1.4 1.6s1.9.7 2.1.3-.5-.8-1.3-1.4-2.1-.7-2.2-.5z" fill="url(#id-996aM)"/><path d="M120.5 7.7c-.2.2.3.8 1.1 1.4s1.5.5 1.7.3-.3-.8-1.1-1.4-1.5-.7-1.7-.3z" fill="url(#id-997aN)"/><path d="M102.8 25.6l1.6-.6-1.6.4-1.5-.8 1.3 1-1.7.3 1.9-.3 1.5.9z" fill="#fffefb"/><path d="M101.1 25.3c0 .4.7.8 1.5.9a2.6 2.6 0 001.8-.3c0-.4-.7-.8-1.5-.9s-1.8-.2-1.8.3z" fill="url(#id-998aO)"/><path d="M101.5 25.2c0 .2.5.6 1.1.8s1.2-.1 1.2-.3-.5-.6-1.1-.8-1 .1-1.2.3z" fill="url(#id-999aP)"/><path d="M101.7 25.4c0 .2.2.4.9.6s1-.1 1-.3-.2-.4-.9-.6a.9.9 0 00-1 .3z" fill="url(#id-1000aQ)"/><path d="M43 123.6h155a44 44 0 000-88H19z" fill="url(#id-1001aR)"/><path d="M43 123.6h155a44 44 0 000-88H19z" fill="url(#id-1002aS)"/><path d="M43 123.6h155a44 44 0 000-88H19z" fill="url(#id-1003aT)"/><path d="M197.8 125.1H46.5c-4 0-4.9-1-6-4.3-.4-1.3-4.4-16.2-9.1-33.4-5.6-20.6-12.5-46.3-13.1-48s-.8-2.9 0-4 2.4-1.2 4.3-1.2h175.2a45.5 45.5 0 110 90.9zm-177-88a4.9 4.9 0 00.3 1.2c.6 1.9 7 25.4 13.2 48.2 4.5 16.5 8.7 32.1 9.1 33.3s.7 2.2 3.2 2.2h151.2a42.5 42.5 0 100-84.9z" fill="#fbdcc5"/><path d="M161.6 48.6c2.2 7.3 13.3 10.5 25 7.1s19.4-12.1 17.2-19.5-13.3-10.5-25-7.1-19.4 12.2-17.2 19.5z" style="isolation:isolate" opacity=".56" fill="url(#id-1004aU)"/><path d="M156.4 41.4c4.1 10.2 18.9 14.1 32.9 8.5s22.1-18.5 17.9-28.9l-2.3-5.8-50.7 20.6 2.2 5.6z" fill="url(#id-1005aV)"/><path d="M156.4 41.4c4.1 10.2 18.9 14.1 32.9 8.5s22.1-18.5 17.9-28.9l-2.3-5.8-50.7 20.6 2.2 5.6z" fill="url(#id-1006aW)"/><path d="M189.2 21.5l9.6 22.8c7.9-6.5 11.8-15.7 8.7-23.4l-2.3-5.8z" style="isolation:isolate" fill="#892603" opacity=".66"/><path d="M186.2 44.2c-14.1 5.7-27.9 1.8-32-8.4a16.4 16.4 0 01.6-12.3c-1.8 4.3-2 8.4-.4 12.3 4 10 18.3 13.7 32.3 8 8.7-3.5 14.7-9.7 17.4-16.2-3.5 5.7-9.4 13.2-17.9 16.6z" fill="#fffef0"/><path d="M172.3 7.5c14-5.6 28.7-2.1 32.7 7.9s-4.1 22.7-18.1 28.3-28.7 2.1-32.7-7.9 4.1-22.7 18.1-28.3z" fill="url(#id-1007aX)"/><path d="M199.1 31.6a20.8 20.8 0 01-2.9 6.8c7.9-6.5 12.1-15.6 9.1-23.1S194.5 4.6 185.2 4.8c3.7 1.9 9.5 5.1 12 8.6 1.4 1.7 2.1 7.4 2.1 7.4a30.9 30.9 0 01-.2 10.8z" fill="url(#id-1008aY)"/><path d="M173.9 10.2c11.1-4.4 22.5-2 25.5 5.4s-3.5 17.1-14.6 21.5-22.5 2-25.5-5.4 3.5-17 14.6-21.5z" fill="url(#id-1009aZ)"/><path d="M174 10.4c11.1-4.4 22.5-2 25.5 5.4s-3.5 17.1-14.6 21.5-22.5 2-25.5-5.4 3.5-17 14.6-21.5z" fill="url(#id-1010ba)"/><path d="M174 10.4c11.1-4.4 22.5-2 25.5 5.4s-3.5 17.1-14.6 21.5-22.5 2-25.5-5.4 3.5-17 14.6-21.5z" fill="url(#id-1011bb)"/><ellipse cx="179.3" cy="23.7" rx="21.6" ry="14.5" transform="rotate(-21.9 179.334 23.704)" stroke-width=".25" stroke-miterlimit="10" stroke="#fef437" fill="none"/><ellipse cx="179.3" cy="23.7" rx="21.4" ry="14.5" transform="rotate(-21.9 179.334 23.704)" stroke="#c52609" stroke-width=".1" stroke-miterlimit="10" fill="none"/><path d="M176.4 11.5c6.3.6 11.5 3.6 13.6 8.8s.9 9-1.8 13.3c7.5-4.8 11.5-11.5 9.3-16.9s-11.5-8-21.1-5.2z" style="isolation:isolate" fill="#f74000" opacity=".43"/><path d="M159.7 31.8c-3-7.5 3.4-17 14.4-21.5a34.6 34.6 0 018.1-2.1 27.8 27.8 0 00-8.4 2c-11 4.4-17.4 14.1-14.4 21.5 2.2 5.6 9.2 8.4 17.4 7.6-7.9.7-14.8-1.9-17.1-7.5z" fill="#c52609"/><path d="M188.6 24c.1.2.1.2 0 .5a4.5 4.5 0 01-1.3 3c-1 1.3-.4 1.3-1.3 1.9a5.6 5.6 0 01-1.7.9l2-1c.9-.6.2-.5 1.3-1.9a5.1 5.1 0 001.3-3c.1-.6-.1-.9-.3-.4zm-3.5-12c3.3-1.3 5.9.1 3.5 4.9a25.6 25.6 0 01-10.9 11.3h-.2l.4-.2a26.1 26.1 0 0010.9-11.3c2.5-5-.4-6-3.7-4.7zm-1.7 2.4a9.3 9.3 0 00-2.7 1.5c-3 1.9-6.6 5.8-7.1 6.2s0 0 .4-.2 4.1-4.3 7.1-6.2a13.4 13.4 0 012.3-1.3zm.4 16.7l1-.4-.6.2a4.1 4.1 0 01-1.5.2h1.1zm2.1-.9s-.1-.2-.5 0a.2.2 0 01.3.1c.4.5 0 1.6-1 2l-.4.2.6-.2c1-.5 1.6-1.4 1-2.1zm3-11.5a6.9 6.9 0 01-1 3.1 13.3 13.3 0 01-2.7 3.8c-.3.3-.3.3.3.1s0 0 .1-.3a16.3 16.3 0 002.7-3.8 6.9 6.9 0 001-3.1c-.3-.1-.3-.1-.4.2zm-1.8 5.9c-.2.5-1.1 2.2-4.9 4l-1.7.7 2.1-.9c3.7-1.7 4.6-3.4 4.5-3.8s.3-.3 0 0z" fill="#ed8507"/><path d="M179.3 22.6a.2.2 0 01-.1.3 6.8 6.8 0 01-2.6 2.4l-.8.3 1-.4a7.7 7.7 0 002.6-2.4c.3-.4.2-.6-.1-.2zm2.1-3.8c.4-.2.5 0-.3.3a13.8 13.8 0 00-4.6 4.1c-.7 1-.1.9.5.7s-.8.1-.3-.8a13.8 13.8 0 014.6-4.1c1-.5.8-.5.1-.2zm-1.6-4.9c.4-.2.5 0-.2.5-7.1 4-12 12.9-8.2 13.6a4.5 4.5 0 002.7-.4 3.6 3.6 0 01-2.4.3c-3.9-.7 1.1-9.6 8.3-13.9.7-.2.6-.4-.2-.1zm2.4 8l-.2.5c-.3.3-3.3 4.5-7.2 6.7a20.9 20.9 0 01-2.9 1.6A19.4 19.4 0 00175 29a37.9 37.9 0 007.2-6.7c.3-.6.3-.6 0-.4z" fill="#ed8507"/><g opacity=".81" fill="#a60100"><path d="M188.8 23.9c-.2.5-.6 2.9-2.3 4.3a46.4 46.4 0 01-4.9 2.4c-.4.2 0 .7.8.8A6.5 6.5 0 00187 30c.9-.6.2-.5 1.3-1.9a5.1 5.1 0 001.3-3c.2-.5-.6-1.7-.8-1.2zm-3.9-10.7a38.1 38.1 0 00-11.2 9c-.2.5.6.9.9.5s4.1-4.3 7.1-6.2c4.8-3.1 6-1.7 5.7.2-1 4.7-5.3 8-9.7 11.5-.7.5.5 1.2 1 .7a26.1 26.1 0 0010.9-11.3c2.5-5.5-1.1-6.6-4.7-4.4z"/><path d="M185.8 30.5c-.6.2-.5.9-1.1 1.1a4.1 4.1 0 01-1.5.2l-.4.2c-.3.3-.2.7 0 1.1s1.5.5 2.7 0a1.8 1.8 0 001-2c0-.2-.3-.8-.7-.6zm3.1-11.8a14.7 14.7 0 01-4.3 7.6c-4.2 3.5-10 4-10.2 4.1s.6.9.8 1 3.3.5 8.3-2.2 4.7-3.4 4.7-3.9-.2-1-.5-.7A6.6 6.6 0 01186 26c-.4.2 0 .5.3.1a16.3 16.3 0 002.7-3.8 6.9 6.9 0 001-3.1c-.3-.1-.8-1-1.1-.5zM177.4 24a13.8 13.8 0 014.6-4.1c1.1-.7.3-1.5-.7-1.1a21.7 21.7 0 00-5.4 3.9c-2.4 2.3-2.2 5.1 1.3 3.3a7.7 7.7 0 002.6-2.4c.3-.3-.5-1.3-.8-1a10.1 10.1 0 01-1.5 1.7c-.6.1-.8.7-.1-.3z"/><path d="M182.9 23.2c.4-.6 0-1.8-.7-1.1s-6.7 7.4-9.8 6.8 1.1-9.6 8.3-13.9c.9-.6.3-1.5-.7-1.1-6.1 3.1-15.8 14.2-12.1 17.6 1.5 1.4 4.8.3 7.9-1.6a39.4 39.4 0 007.1-6.7z"/></g><path d="M188.6 24a11.1 11.1 0 01-2.9 3.4 13 13 0 01-4.7 2.3c-.4.2 0 .7.8.8a6.5 6.5 0 004.6-1.4c.9-.6.2-.5 1.3-1.9a5.1 5.1 0 001.3-3c0-.4-.2-.7-.4-.2z" fill="url(#id-1012bc)" stroke="url(#id-1013bd)" stroke-width=".25" stroke-miterlimit="10"/><path d="M184.1 12.4a29.7 29.7 0 00-10.5 9.4c-.2.5 0 .5.3.1s4.1-4.3 7.1-6.2c4.8-3.1 6-1.7 5.7.2-1 4.7-4.2 8.4-8.8 12-.7.5-.6.7.1.2a26.1 26.1 0 0010.9-11.3c2.7-5.4-1.1-6.4-4.8-4.4z" fill="url(#id-1014be)" stroke="url(#id-1015bf)" stroke-width=".25" stroke-miterlimit="10"/><path d="M185.4 30.4l-1.3.5a4.1 4.1 0 01-1.5.2l-.4.2c-.3.3-.2.7 0 1.1s1.5.5 2.7 0 1.4-1.5 1-2 0-.4-.5 0z" fill="url(#id-1016bg)" stroke="url(#id-1017bh)" stroke-width=".25" stroke-miterlimit="10"/><path d="M188.6 19.1a14.3 14.3 0 01-4.8 6.4 26.4 26.4 0 01-9.4 4.9c-.4.1-.4.2-.1.3s3.3.5 8.3-2.2 4.7-3.4 4.7-3.9 0-.5-.3-.1a2.9 2.9 0 01-1.2.9c-.4.2-.6.2-.3-.1a16.3 16.3 0 002.7-3.8 6.9 6.9 0 001-3.1s-.3.1-.6.7z" fill="url(#id-1018bi)" stroke="url(#id-1019bj)" stroke-width=".25" stroke-miterlimit="10"/><path d="M176.8 23.1a13.8 13.8 0 014.6-4.1c1.1-.7.6-.7-.1-.2a14.8 14.8 0 00-4.9 3.3c-2.7 2.2-3.1 5.1.3 3a7.7 7.7 0 002.6-2.4c.5-.4.2-.5-.1-.2a9.3 9.3 0 01-1.8 1.2c-.6.4-1.2.6-.6-.6z" fill="url(#id-1020bk)" stroke="url(#id-1021bl)" stroke-width=".25" stroke-miterlimit="10"/><path d="M182.1 22.3c.4-.6.2-.5-.3-.1s-6.8 6.3-10.2 5.7 1.1-9.6 8.3-13.9c.9-.6.6-.7-.2-.4-6.1 3.1-16.4 13.3-12.5 16.9 1.5 1.4 4.8.3 7.9-1.6a24.5 24.5 0 007-6.6z" fill="url(#id-1022bm)" stroke="url(#id-1023bn)" stroke-width=".25" stroke-miterlimit="10"/><path d="M185 27.9c.4-.2.5-.4.8-.8a13 13 0 01-4.7 2.3c-.2.1-.1.3 0 .5a11.1 11.1 0 003.9-2zm3.6-3.9c-.1.3-.3.3-.4.6v.2a4.5 4.5 0 01-1.3 3 2.4 2.4 0 00-.8 1.4h.2c.9-.6.2-.5 1.3-1.9a5.1 5.1 0 001.3-3c0-.4-.2-.7-.4-.2zm-10.8 3.9l-.5.4 1.7-1.4c-.3.4-.8.6-1.2 1zm.3-10a38.8 38.8 0 00-4.5 4.3l.4-.2a48.6 48.6 0 014.1-4.1zm6-5.5a32.1 32.1 0 00-5.6 3.8 20.4 20.4 0 014.7-3.2c3.7-1.9 7.4-1.2 4.7 4.4a26.5 26.5 0 01-6 8 23.6 23.6 0 006.8-8.6c2.9-5.4-.9-6.4-4.6-4.4zm1.8 17.8s-.1-.2-.5 0l-1.3.5a4.1 4.1 0 01-1.5.2l-.4.2a.2.2 0 00-.1.3c.2-.1.7 0 1-.2l1.3-.5c.4-.2.4-.2.5 0s.1.8-.1 1.4 1.6-1.4 1.1-1.9zm-11.6.5a25.2 25.2 0 008.7-4.4l.5-.4a30.6 30.6 0 01-9.1 4.6c-.4 0-.4 0-.1.2zm12.8-6.1l-.5.4a.2.2 0 01-.1.3c-.1.3-.4.6-1.2 1.4a6 6 0 001.8-2.1c.3-.1.3-.3 0 0zm1.5-5.5c.1.2-.1.3-.2.7a5.7 5.7 0 01-1 2.6 13.3 13.3 0 01-2.7 3.8c-.3.3-.3.3.3.1a2.9 2.9 0 001.2-.9l-.4.2c-.4.2-.6.2-.3-.1a16.3 16.3 0 002.7-3.8 6.9 6.9 0 001-3.1c0-.2-.3-.1-.6.5z" fill="#feba17"/><path d="M181.2 18.9a16.7 16.7 0 00-4.6 3 12 12 0 013.8-2.2l.8-.3h.2c.9-.9.7-.9-.2-.5zm-1.9 3.7l-1.8 1.2c-.8.3-1.3.5-.7-.6a7.1 7.1 0 011.8-2.1 9.5 9.5 0 00-2.5 2.6c-.7 1.2-.1.9.7.6a11.1 11.1 0 001.8-1.2c.3-.3.6-.2.3.1a15.7 15.7 0 01-1 1.3 10.9 10.9 0 001.9-1.9c.1-.2-.2-.4-.5 0z" fill="#feba17"/><path d="M179.8 13.9a38.4 38.4 0 00-5.9 4.2 28.1 28.1 0 015.1-3.4l.6-.2h.2c1.1-.7.8-.8 0-.5zm-3.5 2.9c-5.6 4.5-8.7 11.1-5.3 11.8s7.2-3.1 9.2-4.8c-2.2 1.8-6.2 4.7-8.5 4.3s-.5-6.7 4.6-11.3zm5.5 5.4a.7.7 0 00-.3.3c.2-.1.2-.1 0 .5a26.8 26.8 0 01-4.4 4.7 30.2 30.2 0 005.1-5.2c.5-.8.3-.8-.4-.3z" fill="#feba17"/><path d="M188.8 23.9zm-1 3.1a2 2 0 00-.5.9.9.9 0 00.4-.6 3 3 0 00.7-1c-.2.1-.3.4-.6.7zm-1.3 1.9a6.5 6.5 0 01-4.6 1.4 1 1 0 01-.9-.5c-.4.2 0 .7.8.8a6.5 6.5 0 004.6-1.4c.3-.3.5-.4.6-.7s-.3.3-.5.4zm-8.5-1.1l-.6.2c-.3.3-.3.3.3.1a26.4 26.4 0 0010.2-9.7c-3.3 5.6-8.1 8.7-9.9 9.4zm8.5-11.7a15.8 15.8 0 01-1.5 4 14.5 14.5 0 001.6-4.2c.3-1.9-.9-3.2-5.7-.2-3 1.9-6.6 5.8-7.1 6.2s-.5.4-.3-.1a.2.2 0 00-.1.3c-.2.5 0 .5.3.1s4.1-4.3 7.1-6.2c4.8-3.3 6.3-1.9 5.7.1zm-1.4 16c-.9.6-2.2.7-2.7 0a1.1 1.1 0 01-.1-.8h-.2c-.3.3-.2.7 0 1.1s1.5.5 2.7 0a1.7 1.7 0 001.1-1.1c-.1.3-.4.4-.8.8zm.6-6.9a.2.2 0 00-.1.3 11.3 11.3 0 002-2.8 9 9 0 01-1.9 2.5zm3-6.4a.2.2 0 00-.1.3 9.8 9.8 0 01-.8 1.9 7.8 7.8 0 00.9-2.2zm-6 9.6c-5 2.5-7.8 2.3-8.3 2.2s-.4.2-.1.3 3.3.5 8.3-2.2 4.7-3.4 4.7-3.9a12.7 12.7 0 01-4.6 3.6z" fill="#fffefb"/><path d="M176.9 24.9c-2.3 1.4-2.9.5-2-1-1 1.5-.7 2.7 1.9 1.3a7.7 7.7 0 002.6-2.4.2.2 0 00.1-.3 6.8 6.8 0 01-2.6 2.4zm5.1-6.3l-.4.2a13.8 13.8 0 00-4.6 4.1v.3a13.8 13.8 0 014.6-4.1z" fill="#fffefb"/><path d="M182.2 22.1c-.3.3-3.3 4.5-7.2 6.7s-6.4 3-7.9 1.6-.8-3 .3-5.3c-1.3 2.3-1.8 4.3-.5 5.6s4.8.3 7.9-1.6a37.9 37.9 0 007.2-6.7c.2-.3.4-.4.2-.3zm-1.8-8.5l-.4.2a22.7 22.7 0 00-8.3 8.3c1.5-2.9 4.8-5.9 8.2-8 .6-.3.8-.3.5-.5zm-4.2 33l4.5-2.2-5 2-4.9-2.1 4.5 2.3-4.5 2.2 5-2 4.9 2.1z" fill="#fffefb"/><path d="M170.8 46.6c0 1.1 2.2 2.2 4.9 2.3s5-.9 4.9-2.2-2.2-2.2-4.9-2.3-4.9.9-4.9 2.2z" fill="url(#id-1024bo)"/><path d="M172.4 46.6c-.1.9 1.5 1.6 3.5 1.5s3.5-.7 3.5-1.4-1.5-1.6-3.5-1.5-3.6.6-3.5 1.4z" fill="url(#id-1025bp)"/><path d="M173.1 46.6c0 .7 1.2 1.3 2.7 1.2s2.7-.4 2.7-1.1-1.2-1.3-2.7-1.2-2.8.4-2.7 1.1z" fill="url(#id-1026bq)"/><path d="M171.6 46.7l4.4-.6-4.7.5-4.4-2 3.9 2-4.3.8 4.7-.5 4.4 2z" style="isolation:isolate" opacity=".64" fill="#fffefb"/><path d="M166.8 46c-.2.7 1.8 1.7 4.4 2s4.7.1 4.9-.6-1.8-1.7-4.4-2-4.8-.2-4.9.6z" fill="url(#id-1027br)"/><path d="M168.2 46.1c0 .5 1.4 1.2 3 1.5s3.2.1 3.4-.5-1.4-1.2-3-1.5-3.4 0-3.4.5z" fill="url(#id-1028bs)"/><path d="M168.7 46.3c0 .5 1 .9 2.4 1s2.5.1 2.6-.2-1-.9-2.4-1-2.6-.3-2.6.2z" fill="url(#id-1029bt)"/><path d="M190.2 8.6l2.8-.5-3 .4-2.6-1.5 2.4 1.5-3 .5 3-.3 2.7 1.6z" fill="#fffefb"/><path d="M187.1 8c-.2.5 1 1.4 2.7 1.6s3 .1 2.9-.5-1-1.4-2.7-1.6-2.7 0-2.9.5z" fill="url(#id-1030bu)"/><path d="M188 8.1c0 .5.8.8 1.8 1.1s2 .1 2.1-.4-.7-.6-1.7-.9-2.1-.1-2.2.2z" fill="url(#id-1031bv)"/><path d="M188.4 8.4c-.1.3.5.7 1.5 1s1.6 0 1.7-.2-.5-.7-1.5-1-1.7-.2-1.7.2z" fill="url(#id-1032bw)"/><path d="M177 30.9l1.4-1-1.4.8-1.7-.2 1.6.5-1.5.8 1.6-.9 1.8.4z" fill="#fffefb"/><path d="M175.4 31.1c.2.4.9.5 1.7.4a2.7 2.7 0 001.7-.9c-.2-.4-.9-.5-1.7-.4s-1.9.5-1.7.9z" fill="url(#id-1033bx)"/><path d="M175.7 31c.1.2.6.4 1.3.4s1.2-.5 1.1-.7-.6-.4-1.3-.4a1.9 1.9 0 00-1.1.7z" fill="url(#id-1034by)"/><path d="M176 31.1c.1.2.3.3 1 .3s1-.4.9-.6-.3-.3-1-.3-.8.3-.9.6z" fill="url(#id-1035bz)"/><path d="M273.5 21.2L224.8.5h-.1a3.4 3.4 0 00-3-.2L208 3.6c-3.8.9-5.2 4.4-3.3 7.8l7.1 12.2a4.2 4.2 0 002.3 2h.1l48.6 20.6c.2.1.3 0 .4-.2l10.5-24.5a.8.8 0 00-.2-.4zM211 13.9a4.1 4.1 0 01-2.2-5.3 4.2 4.2 0 015.3-2.2 4.1 4.1 0 012.2 5.3 4.1 4.1 0 01-5.3 2.2z" fill="url(#id-1036bA)"/><path d="M215.3 25.9h-.1a4.2 4.2 0 01-2.3-2l-7.1-12.2c-1.9-3.3-.5-6.8 3.3-7.8L222.8.5l1.5-.2a4 4 0 00-2.7-.1l-13.7 3.3c-3.8.9-5.2 4.4-3.3 7.8l7.1 12.2a4.2 4.2 0 002.3 2h.1l48.7 20.7c.1.1.3 0 .4-.1z" fill="#c27bf2"/><path d="M212.4 14.2a4.1 4.1 0 005.2-2.2 4 4 0 00-2.2-5.3 3.5 3.5 0 00-1.4-.3h.2a4.1 4.1 0 012.2 5.3 4 4 0 01-4 2.5z" fill="#c27bf2"/><path d="M224.2 22.9a8 8 0 01-4.2-4.1l-.4-1 4.2-2.2.5 1a4.2 4.2 0 001.8 1.9l.7.3-.7-.8-1.4-1.5a4.8 4.8 0 01-1.2-5.5c1.1-2.6 4.2-3.6 7.2-2.3a6.6 6.6 0 013.7 3.8l.4.9-3.9 2.1a4.5 4.5 0 01.8 5c-1 2.4-3.9 4-7.5 2.4zm-3.4-4.6a7.2 7.2 0 003.7 3.6c3 1.3 5.4 0 6.2-1.8a3.6 3.6 0 00-1-4.3l-1.5-1.5c-.7-.7-1.2-1.2-1-1.8s.5-.9 1.8-.4a4.5 4.5 0 012 1.9h.1l2.3-1.2a6.2 6.2 0 00-3.2-3.2c-2.5-1-5-.3-5.9 1.8a3.9 3.9 0 001 4.4l1.4 1.5c.7.8 1.2 1.2.9 1.9s-.6.9-2 .4a4.9 4.9 0 01-2.3-2.4h-.1zm7.6-5.3l.7.7 1.5 1.5.2.2-.4-.7a3.6 3.6 0 00-1.5-1.5z" fill="#2c0057"/><path d="M241.3 30l-5-2.1.5-3.1-2-.9-1.9 2.5-4.9-2.1 10.3-12 4.7 2-1.7 15.7zm-3.9-2.8l3.1 1.3 1.4-13.6-3.4-1.4-8.9 10.4 2.9 1.3 1.9-2.5 3.4 1.5zm.8-5.7l-2.2-1 .7-.8 1.1-1.5 1.2-1.6-.3 2-.3 1.8z" fill="#2c0057"/><path d="M249.5 33.5l-9.4-4 5.9-13.9 4.7 2-4.1 9.6 4.7 2-1.8 4.3zm-8-4.6l7.6 3.2 1-2.5-4.7-2 4.1-9.6-2.9-1.2-5.1 12.1zm17.7 8.7l-9.6-4.1 5.9-13.9 9.5 4-1.8 4.3-4.7-2v.3l4 1.7-1.8 4.3-4-1.7-.3.7 4.9 2.1zm-8.3-4.6l7.8 3.3 1-2.5-4.9-2.1 1.1-2.5 4 1.7 1-2.4-4-1.7.9-2.2 4.7 2 1-2.5-7.6-3.2-5 12.1z" fill="#2c0057"/><path d="M224.4 22.5a8 8 0 01-4-3.9l-.2-.5 3.4-1.7.3.6a5 5 0 002.1 2.2c1.1.5 1.3 0 1.3-.1s-.1-.5-.8-1.3l-1.4-1.5a4.4 4.4 0 01-1.1-4.9c1-2.3 3.8-3.2 6.5-2.1a6.7 6.7 0 013.5 3.5l.2.5-3.1 1.7-.3-.5a3.3 3.3 0 00-1.8-1.7c-.3-.1-1-.4-1.2.1s.2.6.9 1.3l1.5 1.5a4.2 4.2 0 011.1 4.9c-1 1.9-3.6 3.3-6.9 1.9z" fill="#d17cff"/><path d="M221 18.4l2.3-1.2a4.9 4.9 0 002.4 2.5c1.1.5 1.8.3 2.1-.4s-.3-1.3-1.1-2.1l-1.3-1.3a3.8 3.8 0 01-1-4.2c.8-2 3.2-2.8 5.7-1.7a5.4 5.4 0 013.1 3.2l-2.1 1.1a4.3 4.3 0 00-2-2c-.9-.4-1.7-.2-2 .4s.4 1.3 1.2 2.2l1.3 1.3a3.5 3.5 0 011 4.2c-.8 2-3.2 3-6 1.8a8.8 8.8 0 01-3.6-3.8z" fill="#fff"/><path d="M240.8 29.2l-4-1.7.5-3.1-2.7-1.2-1.9 2.5-3.9-1.7 9.6-11.2 4 1.7-1.6 14.7zm-4-8.8l1 .4v-.4l.3-1.8-1.1 1.5z" fill="#d17cff"/><path d="M238.4 13.6l3.2 1.4-1.3 13.4-2.8-1.2.5-3.1-3.6-1.5-1.9 2.5-2.7-1.2zm-2.6 7l2.5 1.1.2-1.2c.2-1.3.4-2.9.7-4.2h-.1l-2.5 3.4-.8.9z" fill="#fff"/><path d="M249.3 32.8l-8.5-3.6 5.5-13 3.8 1.6-4.1 9.6 4.7 2z" fill="#d17cff"/><path d="M246.6 17.1l2.7 1.1-4.1 9.6 4.7 2-1 2.2-7.3-3.1 5-11.8z" fill="#fff"/><path d="M258.9 36.9l-8.7-3.7 5.5-13 8.5 3.6-1.4 3.4-4.7-2-.5 1.2 4 1.7-1.4 3.4-4-1.7-.7 1.6 4.9 2.1z" fill="#d17cff"/><path d="M256 21.1l7.4 3.2-1 2.2-4.7-2-1 2.4 4 1.7-.9 2.2-4-1.7-1.2 2.7 4.9 2.1-1 2.2-7.6-3.2 5.1-11.8z" fill="#fff"/><path d="M197.8 7.5a9.2 9.2 0 016.8-1.9c4 .4 5.1 1.8 5.1 1.8l-1.1 3.7s-.6-2.6-4.2-2.9a5.7 5.7 0 00-4 .9z" fill="#f3d6c5"/><path d="M199 8.2s1.4-1.9 5.5-1.4 4.6 2.2 4.6 2.2l-.6 2s-.6-2.6-4.2-2.9a5.7 5.7 0 00-4 .9z" fill="#dfab93"/></svg>