<?xml version="1.0" encoding="utf-8"?>
<!-- Generator: Adobe Illustrator 27.0.1, SVG Export Plug-In . SVG Version: 6.00 Build 0)  -->
<svg version="1.1" id="Livello_1" xmlns="http://www.w3.org/2000/svg" xmlns:xlink="http://www.w3.org/1999/xlink" x="0px" y="0px"
	 viewBox="0 0 149.3 130.2" style="enable-background:new 0 0 149.3 130.2;" xml:space="preserve">
<style type="text/css">
	.st0{fill:#FFFFFF;}
	.st1{fill:url(#SVGID_1_);}
	.st2{enable-background:new    ;}
	.st3{fill:url(#SVGID_00000165921710893935691700000001376159945588163244_);}
	.st4{fill:url(#SVGID_00000071529950934254967400000014234284072848337336_);}
	.st5{fill:url(#SVGID_00000130637132517800598630000011923233696710462391_);}
	.st6{fill:url(#SVGID_00000018950917058277435480000008906450340490459583_);}
	.st7{opacity:0.31;fill:url(#SVGID_00000093162475971113075200000008334789458255728512_);}
	.st8{fill:url(#SVGID_00000073696342367192740090000000864392303327307425_);}
	.st9{fill:url(#SVGID_00000163768004757804508940000007785599617480935096_);}
	.st10{fill:url(#SVGID_00000032618823154875213380000007807226816402190011_);}
	.st11{fill:url(#SVGID_00000013882187122560587380000009974707258365009289_);}
	.st12{opacity:0.31;fill:url(#SVGID_00000066508596516328124870000008145568320993899425_);}
	.st13{fill:url(#SVGID_00000065778402453807547510000004274711187161675705_);}
	.st14{fill:url(#SVGID_00000062191438551011978040000016329410653649198746_);}
	.st15{fill:url(#SVGID_00000093153698685221877850000017335050296420949405_);}
	.st16{fill:url(#SVGID_00000062171832812419107160000015462712779936786050_);}
	.st17{opacity:0.31;fill:url(#SVGID_00000083803709883240364360000009282955851618059939_);}
	.st18{fill:url(#SVGID_00000108290399984302329130000011677319651755004320_);}
	.st19{fill:url(#SVGID_00000181788369504076870410000007241875988467812008_);}
	.st20{fill:url(#SVGID_00000136398180793416163510000008742954465135323800_);}
	.st21{fill:url(#SVGID_00000127757319586952126200000011735875421545837211_);}
	.st22{opacity:0.31;fill:url(#SVGID_00000129170155041004088340000004647390616805873539_);}
	.st23{fill:url(#SVGID_00000176041470668793905670000016463911758797233311_);}
	.st24{fill:url(#SVGID_00000033359557225453703430000002393659625433664419_);}
	.st25{fill:url(#SVGID_00000044162877893347956350000015127510341927223705_);}
	.st26{opacity:0.31;fill:url(#SVGID_00000083049298247334584050000015907660909284536720_);}
	.st27{filter:url(#Adobe_OpacityMaskFilter);}
	.st28{fill:url(#SVGID_00000120538425002580550150000004765231577240736149_);}
	.st29{mask:url(#SVGID_00000141457290739037735490000016988491180290592650_);}
	.st30{fill:#FEEE8D;}
	.st31{filter:url(#Adobe_OpacityMaskFilter_00000029018859720428242060000015859938404279235237_);}
	.st32{fill:url(#SVGID_00000152984735667842034540000002319404796866599080_);}
	.st33{mask:url(#SVGID_00000171695661386519989820000015985440715226289841_);}
	.st34{filter:url(#Adobe_OpacityMaskFilter_00000045594104078654152170000013110123802353656740_);}
	.st35{fill:url(#SVGID_00000096043944294998410530000013845106830610003086_);}
	.st36{mask:url(#SVGID_00000153663569924640285020000018086775479353901475_);}
	.st37{filter:url(#Adobe_OpacityMaskFilter_00000152955923555470411300000004662489393555289504_);}
	.st38{fill:url(#SVGID_00000088844081962382110560000002051133910693057664_);}
	.st39{mask:url(#SVGID_00000119810279662420570780000004670800563030397877_);}
	.st40{fill:url(#SVGID_00000049916640002090599070000007530490480277626775_);}
	.st41{fill:url(#SVGID_00000178886615344509437950000011370743927107604900_);}
	.st42{fill:url(#SVGID_00000136383192223431364300000013323922575905730476_);}
	.st43{opacity:0.31;fill:url(#SVGID_00000083799537233001162430000017649807492501290687_);}
	.st44{filter:url(#Adobe_OpacityMaskFilter_00000067208224341907249190000016381961811650100653_);}
	.st45{fill:url(#SVGID_00000021113380760278441850000010750629282204582841_);}
	.st46{opacity:0.6;mask:url(#SVGID_00000124161288480548802820000011959463849859757981_);}
	.st47{filter:url(#Adobe_OpacityMaskFilter_00000005253731383769297990000000904304325711249556_);}
	.st48{fill:url(#SVGID_00000103954337405392967750000016017195675566905747_);}
	.st49{opacity:0.5;mask:url(#SVGID_00000044899186808266871450000006808013114152228788_);}
	.st50{filter:url(#Adobe_OpacityMaskFilter_00000149351288042223442080000015541501668674563230_);}
	.st51{fill:url(#SVGID_00000008862407353098061750000000022047174662206887_);}
	.st52{opacity:0.5;mask:url(#SVGID_00000176016443529585375160000005909911984457251494_);}
</style>
<g>
	<g>
		<path class="st0" d="M112.3,112.8h-50c-11,0-20-8.9-20-20V75.9c0-11,8.9-20,20-20h50c11,0,20,8.9,20,20v16.9
			C132.3,103.8,123.3,112.8,112.3,112.8z"/>
		<radialGradient id="SVGID_1_" cx="87.3111" cy="84.3597" r="32.6066" gradientUnits="userSpaceOnUse">
			<stop  offset="0" style="stop-color:#FD00CC;stop-opacity:0"/>
			<stop  offset="0.1388" style="stop-color:#FD00CC;stop-opacity:0.147"/>
			<stop  offset="0.944" style="stop-color:#FD00CC"/>
		</radialGradient>
		<path class="st1" d="M106.6,107.6H68c-11.3,0-20.5-9.2-20.5-20.5v-5.5c0-11.3,9.2-20.5,20.5-20.5h38.6c11.3,0,20.5,9.2,20.5,20.5
			v5.5C127.1,98.4,117.9,107.6,106.6,107.6z"/>
	</g>
	<g>
		<g class="st2">
			
				<linearGradient id="SVGID_00000024681194423364523540000011613874521622829992_" gradientUnits="userSpaceOnUse" x1="23.1582" y1="93.9753" x2="63.3222" y2="110.1377">
				<stop  offset="0" style="stop-color:#FFB42A"/>
				<stop  offset="1" style="stop-color:#FF861B"/>
			</linearGradient>
			<path style="fill:url(#SVGID_00000024681194423364523540000011613874521622829992_);" d="M64.7,96.9c-4.5-7.2-18.2-11-30.7-8.4
				C21.5,91.1,15,99,19.5,106.3c4.5,7.2,18.2,11,30.7,8.4C62.7,112.1,69.2,104.2,64.7,96.9z M49.8,113.9
				c-12.3,2.5-24.9-1.5-28.9-7.9c-4.2-6.8,1.9-14.3,13.6-16.7c11-2.3,24.4,0.7,28.9,7.9C67.6,104,61.5,111.5,49.8,113.9z"/>
			
				<linearGradient id="SVGID_00000034805821493029879060000002899547865294148535_" gradientUnits="userSpaceOnUse" x1="24.7813" y1="93.966" x2="62.3321" y2="110.5154">
				<stop  offset="0" style="stop-color:#FFEC3C"/>
				<stop  offset="1" style="stop-color:#FFC22F"/>
			</linearGradient>
			<path style="fill:url(#SVGID_00000034805821493029879060000002899547865294148535_);" d="M63.4,97.2c-2.2-3.5-6.5-5.8-10.4-7.1
				c2.4,0.8-2.2-1-7.3-1.5c-0.8-0.1-1.6-0.1-2.5-0.2c-2-0.1-4,0-6,0.3c-13.5,1.8-20.9,9.9-16.3,17.2c0.3,0.5,0.7,1,1.1,1.5
				c0.9,1,1.9,1.9,3.1,2.7c0.1,0.1,0.2,0.1,0.3,0.2c0.6,0.4,1.1,0.7,1.8,1c3.5,1.8,7.4,2.8,11.4,3.1c3.6,0.3,7.5,0.2,11.2-0.6
				C61.5,111.5,67.6,104,63.4,97.2z"/>
			
				<linearGradient id="SVGID_00000049193329716779665250000011027479105003311523_" gradientUnits="userSpaceOnUse" x1="28.8281" y1="96.3747" x2="60.185" y2="109.1497">
				<stop  offset="0" style="stop-color:#FFA124"/>
				<stop  offset="1" style="stop-color:#FF811A"/>
			</linearGradient>
			<path style="fill:url(#SVGID_00000049193329716779665250000011027479105003311523_);" d="M54,102.2c-3.2-5.2-16.1-0.5-16.9-3
				c-0.5-1.6,5.3-2.6,10.3-2.2l0.3-3.3c-2.4-0.3-5.2-0.1-7.6,0.3c-0.7-1.2-0.6-0.9-1.3-2.1l-4.1,0.8l1.3,2.2c-3.4,1-7.3,3.1-5.4,6
				c3.1,5,14.9,0.9,16.8,2.7c1.9,1.7-6.1,3.2-11.6,2.4l-0.4,3.3c2.9,0.4,6.5,0.2,9.5-0.3l1.3,2.1l4.1-0.8l-1.3-2.2
				C52.1,107.1,55.7,105,54,102.2z"/>
			
				<linearGradient id="SVGID_00000017488968698228816680000012895256883527492242_" gradientUnits="userSpaceOnUse" x1="19.3974" y1="112.0678" x2="66.9512" y2="112.0678">
				<stop  offset="0" style="stop-color:#FFAD1A"/>
				<stop  offset="0.2312" style="stop-color:#FFE324"/>
				<stop  offset="0.236" style="stop-color:#FFE533"/>
				<stop  offset="0.2437" style="stop-color:#FFE744"/>
				<stop  offset="0.2532" style="stop-color:#FFE850"/>
				<stop  offset="0.2664" style="stop-color:#FFE957"/>
				<stop  offset="0.3011" style="stop-color:#FFE959"/>
				<stop  offset="0.457" style="stop-color:#FFE324"/>
				<stop  offset="0.7419" style="stop-color:#FFAD1A"/>
				<stop  offset="0.8333" style="stop-color:#FFC41E"/>
				<stop  offset="1" style="stop-color:#F5A314"/>
			</linearGradient>
			<path style="fill:url(#SVGID_00000017488968698228816680000012895256883527492242_);" d="M50.2,114.7
				c-15.6,3.2-32.2-3.5-32.1-13.2l0,7.1c0,9.7,16.5,16.4,32.1,13.2c9.8-2,15.9-7.3,15.9-13l0-7.1C66.1,107.3,60,112.7,50.2,114.7z"
				/>
			
				<linearGradient id="SVGID_00000115490243462763476930000010218712455377785742_" gradientUnits="userSpaceOnUse" x1="28.1793" y1="95.2429" x2="53.8261" y2="106.9534">
				<stop  offset="0" style="stop-color:#FFFFFF"/>
				<stop  offset="0.1271" style="stop-color:#CECECE"/>
				<stop  offset="0.306" style="stop-color:#909090"/>
				<stop  offset="0.4777" style="stop-color:#5D5D5D"/>
				<stop  offset="0.6374" style="stop-color:#353535"/>
				<stop  offset="0.7826" style="stop-color:#181818"/>
				<stop  offset="0.9081" style="stop-color:#060606"/>
				<stop  offset="1" style="stop-color:#000000"/>
			</linearGradient>
			<path style="opacity:0.31;fill:url(#SVGID_00000115490243462763476930000010218712455377785742_);" d="M43.2,88.5
				c-2-0.1-4,0-6,0.3l-15.2,18.7c1,1.1,2.2,2.1,3.4,2.9C34.7,98.9,32.2,102,43.2,88.5z M57,91.8c-7.4,9.1-12.1,14.9-18.5,22.7
				c-3.9-0.4-8-1.4-11.4-3.1c14.4-17.7,4.1-5,18.5-22.7C49.5,89,53.5,90,57,91.8z"/>
		</g>
		<g class="st2">
			
				<linearGradient id="SVGID_00000181786808088268979160000015705615805202692496_" gradientUnits="userSpaceOnUse" x1="18.5114" y1="83.6217" x2="58.6754" y2="99.7841">
				<stop  offset="0" style="stop-color:#FFB42A"/>
				<stop  offset="1" style="stop-color:#FF861B"/>
			</linearGradient>
			<path style="fill:url(#SVGID_00000181786808088268979160000015705615805202692496_);" d="M60,86.6c-4.5-7.2-18.2-11-30.7-8.4
				c-12.5,2.6-18.9,10.5-14.5,17.8c4.5,7.2,18.2,11,30.7,8.4C58,101.8,64.5,93.8,60,86.6z M45.1,103.6c-12.3,2.5-24.9-1.5-28.9-7.9
				C12,88.8,18,81.3,29.8,78.9c11-2.3,24.4,0.7,28.9,7.9C62.9,93.7,56.9,101.1,45.1,103.6z"/>
			
				<linearGradient id="SVGID_00000026856574958202823520000016026385978978165636_" gradientUnits="userSpaceOnUse" x1="31.579" y1="90.7476" x2="48.1165" y2="92.1424">
				<stop  offset="0" style="stop-color:#FFAD1A"/>
				<stop  offset="0.3011" style="stop-color:#F8AB17"/>
				<stop  offset="0.3656" style="stop-color:#F8AC17"/>
				<stop  offset="1" style="stop-color:#FFC41E"/>
			</linearGradient>
			<path style="fill:url(#SVGID_00000026856574958202823520000016026385978978165636_);" d="M58.7,86.8c-2.2-3.5-6.5-5.8-10.4-7.1
				c2.4,0.8-2.2-1-7.3-1.5c-0.8-0.1-1.6-0.1-2.5-0.2c-2-0.1-4,0-6,0.3C19,80.2,11.6,88.3,16.2,95.6c0.3,0.5,0.7,1,1.1,1.5
				c0.9,1,1.9,1.9,3.1,2.7c0.1,0.1,0.2,0.1,0.3,0.2c0.6,0.4,1.1,0.7,1.8,1c3.5,1.8,7.4,2.8,11.4,3.1c3.6,0.3,7.5,0.2,11.2-0.6
				C56.9,101.1,62.9,93.7,58.7,86.8z"/>
			
				<linearGradient id="SVGID_00000117662182934661211500000016049508876476609161_" gradientUnits="userSpaceOnUse" x1="24.1812" y1="86.0211" x2="55.5381" y2="98.7961">
				<stop  offset="0" style="stop-color:#FFA124"/>
				<stop  offset="1" style="stop-color:#FF811A"/>
			</linearGradient>
			<path style="fill:url(#SVGID_00000117662182934661211500000016049508876476609161_);" d="M49.3,91.8c-3.2-5.2-16.1-0.5-16.9-3
				c-0.5-1.6,5.3-2.6,10.3-2.2l0.3-3.3c-2.4-0.3-5.2-0.1-7.6,0.3c-0.7-1.2-0.6-0.9-1.3-2.1l-4.1,0.8l1.3,2.2c-3.4,1-7.3,3.1-5.4,6
				c3.1,5,14.9,0.9,16.8,2.7c1.9,1.7-6.1,3.2-11.6,2.4L30.7,99c2.9,0.4,6.5,0.2,9.5-0.3l1.3,2.1l4.1-0.8l-1.3-2.2
				C47.4,96.8,51.1,94.7,49.3,91.8z"/>
			
				<linearGradient id="SVGID_00000065076751841200665300000000488155949111524499_" gradientUnits="userSpaceOnUse" x1="61.6991" y1="101.5087" x2="14.9423" y2="101.7743">
				<stop  offset="0" style="stop-color:#FFAD1A"/>
				<stop  offset="0.2312" style="stop-color:#FFE324"/>
				<stop  offset="0.236" style="stop-color:#FFE533"/>
				<stop  offset="0.2437" style="stop-color:#FFE744"/>
				<stop  offset="0.2532" style="stop-color:#FFE850"/>
				<stop  offset="0.2664" style="stop-color:#FFE957"/>
				<stop  offset="0.3011" style="stop-color:#FFE959"/>
				<stop  offset="0.457" style="stop-color:#FFE324"/>
				<stop  offset="0.7419" style="stop-color:#FFAD1A"/>
				<stop  offset="0.8333" style="stop-color:#FFC41E"/>
				<stop  offset="1" style="stop-color:#F5A314"/>
			</linearGradient>
			<path style="fill:url(#SVGID_00000065076751841200665300000000488155949111524499_);" d="M45.6,104.3
				c-15.6,3.2-32.2-3.5-32.1-13.2l0,7.1c0,9.7,16.5,16.4,32.1,13.2c9.8-2,15.9-7.3,15.9-13l0-7.1C61.4,97,55.4,102.3,45.6,104.3z"/>
			
				<linearGradient id="SVGID_00000107557952830761380910000000042204009462071462_" gradientUnits="userSpaceOnUse" x1="23.5324" y1="84.8894" x2="49.1793" y2="96.5998">
				<stop  offset="0" style="stop-color:#FFFFFF"/>
				<stop  offset="0.1271" style="stop-color:#CECECE"/>
				<stop  offset="0.306" style="stop-color:#909090"/>
				<stop  offset="0.4777" style="stop-color:#5D5D5D"/>
				<stop  offset="0.6374" style="stop-color:#353535"/>
				<stop  offset="0.7826" style="stop-color:#181818"/>
				<stop  offset="0.9081" style="stop-color:#060606"/>
				<stop  offset="1" style="stop-color:#000000"/>
			</linearGradient>
			<path style="opacity:0.31;fill:url(#SVGID_00000107557952830761380910000000042204009462071462_);" d="M38.5,78.2
				c-2-0.1-4,0-6,0.3L17.3,97.1c1,1.1,2.2,2.1,3.4,2.9C30.1,88.5,27.6,91.6,38.5,78.2z M52.4,81.5c-7.4,9.1-12.1,14.9-18.5,22.7
				c-3.9-0.4-8-1.4-11.4-3.1c14.4-17.7,4.1-5,18.5-22.7C44.8,78.7,48.9,79.7,52.4,81.5z"/>
		</g>
		<g class="st2">
			
				<linearGradient id="SVGID_00000070815620539673933280000000113412960474609550_" gradientUnits="userSpaceOnUse" x1="17.5605" y1="75.5585" x2="68.3822" y2="84.2194">
				<stop  offset="0" style="stop-color:#FFB42A"/>
				<stop  offset="1" style="stop-color:#FF861B"/>
			</linearGradient>
			<path style="fill:url(#SVGID_00000070815620539673933280000000113412960474609550_);" d="M64.7,75.1c-4.5-7.2-18.2-11-30.7-8.4
				C21.5,69.2,15,77.2,19.5,84.4c4.5,7.2,18.2,11,30.7,8.4C62.7,90.3,69.2,82.3,64.7,75.1z M49.8,92.1c-12.3,2.5-24.9-1.5-28.9-7.9
				c-4.2-6.8,1.9-14.3,13.6-16.7c11-2.3,24.4,0.7,28.9,7.9C67.6,82.2,61.5,89.6,49.8,92.1z"/>
			
				<linearGradient id="SVGID_00000085219292718167137100000006744252959202208686_" gradientUnits="userSpaceOnUse" x1="24.8017" y1="72.1137" x2="62.3524" y2="88.6631">
				<stop  offset="0" style="stop-color:#FFEC3C"/>
				<stop  offset="1" style="stop-color:#FFC22F"/>
			</linearGradient>
			<path style="fill:url(#SVGID_00000085219292718167137100000006744252959202208686_);" d="M63.4,75.3c-2.2-3.5-6.5-5.8-10.4-7.1
				c2.4,0.8-2.2-1-7.3-1.5c-0.8-0.1-1.6-0.1-2.5-0.2c-2-0.1-4,0-6,0.3c-13.5,1.8-20.9,9.9-16.3,17.2c0.3,0.5,0.7,1,1.1,1.5
				c0.9,1,1.9,1.9,3.1,2.7c0.1,0.1,0.2,0.1,0.3,0.2c0.6,0.4,1.1,0.7,1.8,1c3.5,1.8,7.4,2.8,11.4,3.1c3.6,0.3,7.5,0.2,11.2-0.6
				C61.5,89.6,67.6,82.2,63.4,75.3z"/>
			
				<linearGradient id="SVGID_00000142156435549224112140000011224181626238545325_" gradientUnits="userSpaceOnUse" x1="28.8484" y1="74.5224" x2="60.2053" y2="87.2974">
				<stop  offset="0" style="stop-color:#FFA124"/>
				<stop  offset="1" style="stop-color:#FF811A"/>
			</linearGradient>
			<path style="fill:url(#SVGID_00000142156435549224112140000011224181626238545325_);" d="M54,80.3c-3.2-5.2-16.1-0.5-16.9-3
				c-0.5-1.6,5.3-2.6,10.3-2.2l0.3-3.3c-2.4-0.3-5.2-0.1-7.6,0.3c-0.7-1.2-0.6-0.9-1.3-2.1l-4.1,0.8l1.3,2.2c-3.4,1-7.3,3.1-5.4,6
				c3.1,5,14.9,0.9,16.8,2.7c1.9,1.7-6.1,3.2-11.6,2.4l-0.4,3.3c2.9,0.4,6.5,0.2,9.5-0.3l1.3,2.1l4.1-0.8l-1.3-2.2
				C52.1,85.3,55.8,83.2,54,80.3z"/>
			
				<linearGradient id="SVGID_00000047773762776994476390000009670853845462392707_" gradientUnits="userSpaceOnUse" x1="19.3975" y1="90.2155" x2="66.9512" y2="90.2155">
				<stop  offset="0" style="stop-color:#FFAD1A"/>
				<stop  offset="0.2312" style="stop-color:#FFE324"/>
				<stop  offset="0.236" style="stop-color:#FFE533"/>
				<stop  offset="0.2437" style="stop-color:#FFE744"/>
				<stop  offset="0.2532" style="stop-color:#FFE850"/>
				<stop  offset="0.2664" style="stop-color:#FFE957"/>
				<stop  offset="0.3011" style="stop-color:#FFE959"/>
				<stop  offset="0.457" style="stop-color:#FFE324"/>
				<stop  offset="0.7419" style="stop-color:#FFAD1A"/>
				<stop  offset="0.8333" style="stop-color:#FFC41E"/>
				<stop  offset="1" style="stop-color:#F5A314"/>
			</linearGradient>
			<path style="fill:url(#SVGID_00000047773762776994476390000009670853845462392707_);" d="M50.2,92.8
				c-15.6,3.2-32.2-3.5-32.1-13.2l0,7.1c0,9.7,16.5,16.4,32.1,13.2c9.8-2,15.9-7.3,15.9-13l0-7.1C66.1,85.5,60,90.8,50.2,92.8z"/>
			
				<linearGradient id="SVGID_00000137106430563701902320000013158959005214972329_" gradientUnits="userSpaceOnUse" x1="28.1996" y1="73.3907" x2="53.8465" y2="85.1011">
				<stop  offset="0" style="stop-color:#FFFFFF"/>
				<stop  offset="0.1271" style="stop-color:#CECECE"/>
				<stop  offset="0.306" style="stop-color:#909090"/>
				<stop  offset="0.4777" style="stop-color:#5D5D5D"/>
				<stop  offset="0.6374" style="stop-color:#353535"/>
				<stop  offset="0.7826" style="stop-color:#181818"/>
				<stop  offset="0.9081" style="stop-color:#060606"/>
				<stop  offset="1" style="stop-color:#000000"/>
			</linearGradient>
			<path style="opacity:0.31;fill:url(#SVGID_00000137106430563701902320000013158959005214972329_);" d="M43.2,66.7
				c-2-0.1-4,0-6,0.3L22,85.6c1,1.1,2.2,2.1,3.4,2.9C34.7,77,32.2,80.1,43.2,66.7z M57.1,70C49.7,79,44.9,84.9,38.6,92.7
				c-3.9-0.4-8-1.4-11.4-3.1c14.4-17.7,4.1-5,18.5-22.7C49.5,67.2,53.6,68.2,57.1,70z"/>
		</g>
		<g class="st2">
			
				<linearGradient id="SVGID_00000096766011449188919310000017582832861409640867_" gradientUnits="userSpaceOnUse" x1="26.4505" y1="61.175" x2="66.6145" y2="77.3373">
				<stop  offset="0" style="stop-color:#FFB42A"/>
				<stop  offset="1" style="stop-color:#FF861B"/>
			</linearGradient>
			<path style="fill:url(#SVGID_00000096766011449188919310000017582832861409640867_);" d="M68,64.1c-4.5-7.2-18.2-11-30.7-8.4
				S18.3,66.2,22.8,73.5c4.5,7.2,18.2,11,30.7,8.4C66,79.3,72.5,71.4,68,64.1z M53,81.1c-12.3,2.5-24.9-1.5-28.9-7.9
				c-4.2-6.8,1.9-14.3,13.6-16.7c11-2.3,24.4,0.7,28.9,7.9C70.9,71.2,64.8,78.7,53,81.1z"/>
			
				<linearGradient id="SVGID_00000113344508152275435680000010435226667449440660_" gradientUnits="userSpaceOnUse" x1="24.0152" y1="58.7564" x2="66.8531" y2="78.8803">
				<stop  offset="0" style="stop-color:#FFAD1A"/>
				<stop  offset="0.3011" style="stop-color:#F8AB17"/>
				<stop  offset="0.3656" style="stop-color:#F8AC17"/>
				<stop  offset="1" style="stop-color:#FFC41E"/>
			</linearGradient>
			<path style="fill:url(#SVGID_00000113344508152275435680000010435226667449440660_);" d="M66.7,64.4c-2.2-3.5-6.5-5.8-10.4-7.1
				c2.4,0.8-2.2-1-7.3-1.5c-0.8-0.1-1.6-0.1-2.5-0.2c-2-0.1-4,0-6,0.3c-13.5,1.8-20.9,9.9-16.3,17.2c0.3,0.5,0.7,1,1.1,1.5
				c0.9,1,1.9,1.9,3.1,2.7c0.1,0.1,0.2,0.1,0.3,0.2c0.6,0.4,1.1,0.7,1.8,1c3.5,1.8,7.4,2.8,11.4,3.1c3.6,0.3,7.5,0.2,11.2-0.6
				C64.8,78.7,70.9,71.2,66.7,64.4z"/>
			
				<linearGradient id="SVGID_00000119107639448155025300000003141096198323624876_" gradientUnits="userSpaceOnUse" x1="32.1203" y1="63.5743" x2="63.4773" y2="76.3494">
				<stop  offset="0" style="stop-color:#FFA124"/>
				<stop  offset="1" style="stop-color:#FF811A"/>
			</linearGradient>
			<path style="fill:url(#SVGID_00000119107639448155025300000003141096198323624876_);" d="M57.3,69.4c-3.2-5.2-16.1-0.5-16.9-3
				c-0.5-1.6,5.3-2.6,10.3-2.2l0.3-3.3c-2.4-0.3-5.2-0.1-7.6,0.3c-0.7-1.2-0.6-0.9-1.3-2.1L38,59.9l1.3,2.2c-3.4,1-7.3,3.1-5.4,6
				c3.1,5,14.9,0.9,16.8,2.7c1.9,1.7-6.1,3.2-11.6,2.4l-0.4,3.3c2.9,0.4,6.5,0.2,9.5-0.3l1.3,2.1l4.1-0.8l-1.3-2.2
				C55.4,74.3,59,72.2,57.3,69.4z"/>
			
				<linearGradient id="SVGID_00000034773778660554082500000004785572339809923226_" gradientUnits="userSpaceOnUse" x1="69.1286" y1="79.0681" x2="21.5748" y2="79.3338">
				<stop  offset="0" style="stop-color:#FFAD1A"/>
				<stop  offset="0.2312" style="stop-color:#FFE324"/>
				<stop  offset="0.236" style="stop-color:#FFE533"/>
				<stop  offset="0.2437" style="stop-color:#FFE744"/>
				<stop  offset="0.2532" style="stop-color:#FFE850"/>
				<stop  offset="0.2664" style="stop-color:#FFE957"/>
				<stop  offset="0.3011" style="stop-color:#FFE959"/>
				<stop  offset="0.457" style="stop-color:#FFE324"/>
				<stop  offset="0.7419" style="stop-color:#FFAD1A"/>
				<stop  offset="0.8333" style="stop-color:#FFC41E"/>
				<stop  offset="1" style="stop-color:#F5A314"/>
			</linearGradient>
			<path style="fill:url(#SVGID_00000034773778660554082500000004785572339809923226_);" d="M53.5,81.9
				c-15.6,3.2-32.2-3.5-32.1-13.2l0,7.1c0,9.7,16.5,16.4,32.1,13.2c9.8-2,15.9-7.3,15.9-13l0-7.1C69.4,74.5,63.3,79.9,53.5,81.9z"/>
			
				<linearGradient id="SVGID_00000120546573873298204830000016206023345260555441_" gradientUnits="userSpaceOnUse" x1="31.4715" y1="62.4425" x2="57.1184" y2="74.153">
				<stop  offset="0" style="stop-color:#FFFFFF"/>
				<stop  offset="0.1271" style="stop-color:#CECECE"/>
				<stop  offset="0.306" style="stop-color:#909090"/>
				<stop  offset="0.4777" style="stop-color:#5D5D5D"/>
				<stop  offset="0.6374" style="stop-color:#353535"/>
				<stop  offset="0.7826" style="stop-color:#181818"/>
				<stop  offset="0.9081" style="stop-color:#060606"/>
				<stop  offset="1" style="stop-color:#000000"/>
			</linearGradient>
			<path style="opacity:0.31;fill:url(#SVGID_00000120546573873298204830000016206023345260555441_);" d="M46.4,55.7
				c-2-0.1-4,0-6,0.3L25.2,74.7c1,1.1,2.2,2.1,3.4,2.9C38,66.1,35.5,69.2,46.4,55.7z M60.3,59C53,68.1,48.2,73.9,41.9,81.7
				c-3.9-0.4-8-1.4-11.4-3.1c14.4-17.7,4.1-5,18.5-22.7C52.8,56.2,56.8,57.2,60.3,59z"/>
		</g>
		<g class="st2">
			
				<linearGradient id="SVGID_00000003068689307365571400000016242721141456725650_" gradientUnits="userSpaceOnUse" x1="18.3171" y1="54.7422" x2="69.1388" y2="63.4031">
				<stop  offset="0" style="stop-color:#FFB42A"/>
				<stop  offset="1" style="stop-color:#FF861B"/>
			</linearGradient>
			<path style="fill:url(#SVGID_00000003068689307365571400000016242721141456725650_);" d="M65.5,54.3c-4.5-7.2-18.2-11-30.7-8.4
				c-12.5,2.6-18.9,10.5-14.5,17.8c4.5,7.2,18.2,11,30.7,8.4C63.5,69.4,69.9,61.5,65.5,54.3z M50.5,71.3
				c-12.3,2.5-24.9-1.5-28.9-7.9c-4.2-6.8,1.9-14.3,13.6-16.7c11-2.3,24.4,0.7,28.9,7.9C68.4,61.3,62.3,68.8,50.5,71.3z"/>
			
				<linearGradient id="SVGID_00000138564228374871571640000017866622909840602249_" gradientUnits="userSpaceOnUse" x1="25.5583" y1="51.2975" x2="63.109" y2="67.8469">
				<stop  offset="0" style="stop-color:#FFEC3C"/>
				<stop  offset="1" style="stop-color:#FFC22F"/>
			</linearGradient>
			<path style="fill:url(#SVGID_00000138564228374871571640000017866622909840602249_);" d="M64.1,54.5c-2.2-3.5-6.5-5.8-10.4-7.1
				c2.4,0.8-2.2-1-7.3-1.5c-0.8-0.1-1.6-0.1-2.5-0.2c-2-0.1-4,0-6,0.3C24.4,47.9,17.1,56,21.6,63.3c0.3,0.5,0.7,1,1.1,1.5
				c0.9,1,1.9,1.9,3.1,2.7c0.1,0.1,0.2,0.1,0.3,0.2c0.6,0.4,1.1,0.7,1.8,1c3.5,1.8,7.4,2.8,11.4,3.1c3.6,0.3,7.5,0.2,11.2-0.6
				C62.3,68.8,68.4,61.3,64.1,54.5z"/>
			
				<linearGradient id="SVGID_00000087395579455245920400000004000526302176848006_" gradientUnits="userSpaceOnUse" x1="19.3974" y1="69.3993" x2="66.9512" y2="69.3993">
				<stop  offset="0" style="stop-color:#FFAD1A"/>
				<stop  offset="0.2312" style="stop-color:#FFE324"/>
				<stop  offset="0.236" style="stop-color:#FFE533"/>
				<stop  offset="0.2437" style="stop-color:#FFE744"/>
				<stop  offset="0.2532" style="stop-color:#FFE850"/>
				<stop  offset="0.2664" style="stop-color:#FFE957"/>
				<stop  offset="0.3011" style="stop-color:#FFE959"/>
				<stop  offset="0.457" style="stop-color:#FFE324"/>
				<stop  offset="0.7419" style="stop-color:#FFAD1A"/>
				<stop  offset="0.8333" style="stop-color:#FFC41E"/>
				<stop  offset="1" style="stop-color:#F5A314"/>
			</linearGradient>
			<path style="fill:url(#SVGID_00000087395579455245920400000004000526302176848006_);" d="M51,72c-15.6,3.2-32.2-3.5-32.1-13.2
				l0,7.1c0,9.7,16.5,16.4,32.1,13.2c9.8-2,15.9-7.3,15.9-13l0-7.1C66.9,64.7,60.8,70,51,72z"/>
			
				<linearGradient id="SVGID_00000007399415564231853840000004362968314662875795_" gradientUnits="userSpaceOnUse" x1="28.9562" y1="52.5744" x2="54.603" y2="64.2848">
				<stop  offset="0" style="stop-color:#FFFFFF"/>
				<stop  offset="0.1271" style="stop-color:#CECECE"/>
				<stop  offset="0.306" style="stop-color:#909090"/>
				<stop  offset="0.4777" style="stop-color:#5D5D5D"/>
				<stop  offset="0.6374" style="stop-color:#353535"/>
				<stop  offset="0.7826" style="stop-color:#181818"/>
				<stop  offset="0.9081" style="stop-color:#060606"/>
				<stop  offset="1" style="stop-color:#000000"/>
			</linearGradient>
			<path style="opacity:0.31;fill:url(#SVGID_00000007399415564231853840000004362968314662875795_);" d="M43.9,45.8
				c-2-0.1-4,0-6,0.3L22.7,64.8c1,1.1,2.2,2.1,3.4,2.9C35.5,56.2,33,59.3,43.9,45.8z M57.8,49.1c-7.4,9.1-12.1,14.9-18.5,22.7
				c-3.9-0.4-8-1.4-11.4-3.1C42.3,51,32,63.7,46.4,46C50.3,46.4,54.3,47.3,57.8,49.1z"/>
		</g>
		<g>
			<defs>
				<filter id="Adobe_OpacityMaskFilter" filterUnits="userSpaceOnUse" x="61.5" y="18.9" width="1.5" height="13.5">
					<feColorMatrix  type="matrix" values="1 0 0 0 0  0 1 0 0 0  0 0 1 0 0  0 0 0 1 0"/>
				</filter>
			</defs>
			
				<mask maskUnits="userSpaceOnUse" x="61.5" y="18.9" width="1.5" height="13.5" id="SVGID_00000067215694030510193640000017471202305359600521_">
				<g class="st27">
					
						<linearGradient id="SVGID_00000056427970315459437070000004868340606556359842_" gradientUnits="userSpaceOnUse" x1="62.5651" y1="34.5685" x2="62.5651" y2="19.6881">
						<stop  offset="0" style="stop-color:#FFFFFF"/>
						<stop  offset="1" style="stop-color:#000000"/>
					</linearGradient>
					
						<rect x="60.7" y="18.2" style="fill:url(#SVGID_00000056427970315459437070000004868340606556359842_);" width="3.7" height="16.4"/>
				</g>
			</mask>
			<g style="mask:url(#SVGID_00000067215694030510193640000017471202305359600521_);">
				<path class="st30" d="M62.3,32.4c-0.4,0-0.7-0.3-0.7-0.7V19.6c0-0.4,0.3-0.7,0.7-0.7c0.4,0,0.7,0.3,0.7,0.7v12.1
					C63,32.1,62.7,32.4,62.3,32.4z"/>
			</g>
			<defs>
				
					<filter id="Adobe_OpacityMaskFilter_00000171685871869970821350000007266918523689862818_" filterUnits="userSpaceOnUse" x="25.9" y="19" width="1.5" height="13.5">
					<feColorMatrix  type="matrix" values="1 0 0 0 0  0 1 0 0 0  0 0 1 0 0  0 0 0 1 0"/>
				</filter>
			</defs>
			
				<mask maskUnits="userSpaceOnUse" x="25.9" y="19" width="1.5" height="13.5" id="SVGID_00000029755263208947525960000017631185808117962624_">
				<g style="filter:url(#Adobe_OpacityMaskFilter_00000171685871869970821350000007266918523689862818_);">
					
						<linearGradient id="SVGID_00000157281867759518067740000006695394306061558938_" gradientUnits="userSpaceOnUse" x1="26.9662" y1="34.7014" x2="26.9662" y2="19.8209">
						<stop  offset="0" style="stop-color:#FFFFFF"/>
						<stop  offset="1" style="stop-color:#000000"/>
					</linearGradient>
					
						<rect x="25.1" y="18.3" style="fill:url(#SVGID_00000157281867759518067740000006695394306061558938_);" width="3.7" height="16.4"/>
				</g>
			</mask>
			<g style="mask:url(#SVGID_00000029755263208947525960000017631185808117962624_);">
				<path class="st30" d="M26.7,32.6c-0.4,0-0.7-0.3-0.7-0.7V19.8c0-0.4,0.3-0.7,0.7-0.7c0.4,0,0.7,0.3,0.7,0.7v12.1
					C27.4,32.3,27.1,32.6,26.7,32.6z"/>
			</g>
			<defs>
				
					<filter id="Adobe_OpacityMaskFilter_00000005235388165031441940000012303999789775648700_" filterUnits="userSpaceOnUse" x="58.1" y="5.4" width="1.5" height="23.4">
					<feColorMatrix  type="matrix" values="1 0 0 0 0  0 1 0 0 0  0 0 1 0 0  0 0 0 1 0"/>
				</filter>
			</defs>
			
				<mask maskUnits="userSpaceOnUse" x="58.1" y="5.4" width="1.5" height="23.4" id="SVGID_00000030461272017744278610000002981775361936486785_">
				<g style="filter:url(#Adobe_OpacityMaskFilter_00000005235388165031441940000012303999789775648700_);">
					
						<linearGradient id="SVGID_00000181797450674777714140000009599580924552016781_" gradientUnits="userSpaceOnUse" x1="58.6237" y1="31.9119" x2="58.6237" y2="7.338">
						<stop  offset="0" style="stop-color:#FFFFFF"/>
						<stop  offset="1" style="stop-color:#000000"/>
					</linearGradient>
					
						<rect x="55.6" y="4.8" style="fill:url(#SVGID_00000181797450674777714140000009599580924552016781_);" width="6.1" height="27.1"/>
				</g>
			</mask>
			<g style="mask:url(#SVGID_00000030461272017744278610000002981775361936486785_);">
				<path class="st30" d="M58.8,28.8c-0.4,0-0.7-0.3-0.7-0.7V6.2c0-0.4,0.3-0.7,0.7-0.7c0.4,0,0.7,0.3,0.7,0.7v21.9
					C59.6,28.5,59.2,28.8,58.8,28.8z"/>
			</g>
			<defs>
				
					<filter id="Adobe_OpacityMaskFilter_00000176733246527928987790000002568052833896918412_" filterUnits="userSpaceOnUse" x="70" y="22.8" width="1.5" height="23.4">
					<feColorMatrix  type="matrix" values="1 0 0 0 0  0 1 0 0 0  0 0 1 0 0  0 0 0 1 0"/>
				</filter>
			</defs>
			
				<mask maskUnits="userSpaceOnUse" x="70" y="22.8" width="1.5" height="23.4" id="SVGID_00000175287572675638609290000018260116426070437304_">
				<g style="filter:url(#Adobe_OpacityMaskFilter_00000176733246527928987790000002568052833896918412_);">
					
						<linearGradient id="SVGID_00000143575811418656526620000008718227491082874250_" gradientUnits="userSpaceOnUse" x1="70.4768" y1="49.2395" x2="70.4768" y2="24.6656">
						<stop  offset="0" style="stop-color:#FFFFFF"/>
						<stop  offset="1" style="stop-color:#000000"/>
					</linearGradient>
					
						<rect x="67.4" y="22.1" style="fill:url(#SVGID_00000143575811418656526620000008718227491082874250_);" width="6.1" height="27.1"/>
				</g>
			</mask>
			<g style="mask:url(#SVGID_00000175287572675638609290000018260116426070437304_);">
				<path class="st30" d="M70.7,46.1c-0.4,0-0.7-0.3-0.7-0.7V23.5c0-0.4,0.3-0.7,0.7-0.7c0.4,0,0.7,0.3,0.7,0.7v21.9
					C71.4,45.8,71.1,46.1,70.7,46.1z"/>
			</g>
			<g class="st2">
				
					<linearGradient id="SVGID_00000049206999786370335690000002873714477560423594_" gradientUnits="userSpaceOnUse" x1="160.9247" y1="372.1096" x2="201.9067" y2="388.6012" gradientTransform="matrix(0.7897 0.6135 -0.6135 0.7897 141.1945 -371.4992)">
					<stop  offset="0" style="stop-color:#FFB42A"/>
					<stop  offset="1" style="stop-color:#FF861B"/>
				</linearGradient>
				<path style="fill:url(#SVGID_00000049206999786370335690000002873714477560423594_);" d="M71.6,49.5c0.9-8.6-7.8-20.3-19.5-26
					c-11.7-5.7-21.9-3.4-22.8,5.3c-0.9,8.6,7.8,20.3,19.5,26C60.5,60.4,70.7,58.1,71.6,49.5z M48.9,53.8
					C37.4,48.2,29.8,37,30.6,29.3C31.4,21.2,41,19,52,24.3c10.3,5.1,19.2,15.9,18.3,24.5C69.5,57,59.9,59.2,48.9,53.8z"/>
				
					<linearGradient id="SVGID_00000075876693156102976420000016611314036978159022_" gradientUnits="userSpaceOnUse" x1="162.5809" y1="372.1001" x2="200.8964" y2="388.9865" gradientTransform="matrix(0.7897 0.6135 -0.6135 0.7897 141.1945 -371.4992)">
					<stop  offset="0" style="stop-color:#FFEC3C"/>
					<stop  offset="1" style="stop-color:#FFC22F"/>
				</linearGradient>
				<path style="fill:url(#SVGID_00000075876693156102976420000016611314036978159022_);" d="M70.4,48.8c0.4-4.2-1.6-8.7-4-12.2
					c1.4,2.1-1.2-2.2-5-5.8c-0.6-0.6-1.2-1.1-1.9-1.7c-1.6-1.3-3.3-2.5-5-3.5c-12-7.1-23-5.1-23.9,3.6c-0.1,0.6-0.1,1.3,0,1.9
					c0.1,1.4,0.4,2.8,0.8,4.1c0,0.1,0.1,0.2,0.1,0.4c0.2,0.6,0.5,1.3,0.8,1.9c1.7,3.6,4.2,6.9,7.2,9.7c2.7,2.6,5.9,4.8,9.4,6.5
					C59.9,59.2,69.5,57,70.4,48.8z"/>
				
					<linearGradient id="SVGID_00000128452568198164360340000006787491804597448886_" gradientUnits="userSpaceOnUse" x1="24.3899" y1="32.305" x2="63.1768" y2="62.5907">
					<stop  offset="0" style="stop-color:#FFAD1A"/>
					<stop  offset="0.2312" style="stop-color:#FFE324"/>
					<stop  offset="0.236" style="stop-color:#FFE533"/>
					<stop  offset="0.2437" style="stop-color:#FFE744"/>
					<stop  offset="0.2532" style="stop-color:#FFE850"/>
					<stop  offset="0.2664" style="stop-color:#FFE957"/>
					<stop  offset="0.3011" style="stop-color:#FFE959"/>
					<stop  offset="0.457" style="stop-color:#FFE324"/>
					<stop  offset="0.7419" style="stop-color:#FFAD1A"/>
					<stop  offset="0.8333" style="stop-color:#FFC41E"/>
					<stop  offset="1" style="stop-color:#F5A314"/>
				</linearGradient>
				<path style="fill:url(#SVGID_00000128452568198164360340000006787491804597448886_);" d="M48.8,54.7
					c-14.6-7.2-23.7-23-17.7-30.7l-4.5,5.7c-6.1,7.8,3.1,23.6,17.7,30.7c9.1,4.5,17.4,4,21-0.6l4.5-5.7C66.2,58.7,58,59.2,48.8,54.7
					z"/>
				
					<linearGradient id="SVGID_00000017490976900210914860000016139555344124256927_" gradientUnits="userSpaceOnUse" x1="166.0485" y1="373.4033" x2="192.2165" y2="385.3517" gradientTransform="matrix(0.7897 0.6135 -0.6135 0.7897 141.1945 -371.4992)">
					<stop  offset="0" style="stop-color:#FFFFFF"/>
					<stop  offset="0.1271" style="stop-color:#CECECE"/>
					<stop  offset="0.306" style="stop-color:#909090"/>
					<stop  offset="0.4777" style="stop-color:#5D5D5D"/>
					<stop  offset="0.6374" style="stop-color:#353535"/>
					<stop  offset="0.7826" style="stop-color:#181818"/>
					<stop  offset="0.9081" style="stop-color:#060606"/>
					<stop  offset="1" style="stop-color:#000000"/>
				</linearGradient>
				<path style="opacity:0.31;fill:url(#SVGID_00000017490976900210914860000016139555344124256927_);" d="M59.5,29.2
					c-1.6-1.3-3.3-2.5-5-3.5l-23.9,5.5c0.1,1.5,0.4,3,1,4.5C46.2,32.3,42.3,33.2,59.5,29.2z M68.7,40.5C57,43.2,49.5,45,39.5,47.3
					c-2.9-2.7-5.6-6.1-7.2-9.7c22.7-5.3,6.4-1.5,29.1-6.7C64.3,33.6,67,36.9,68.7,40.5z"/>
			</g>
			<defs>
				
					<filter id="Adobe_OpacityMaskFilter_00000007386005517209266910000012572912385477778102_" filterUnits="userSpaceOnUse" x="41.2" y="37.8" width="1.5" height="21.7">
					<feColorMatrix  type="matrix" values="1 0 0 0 0  0 1 0 0 0  0 0 1 0 0  0 0 0 1 0"/>
				</filter>
			</defs>
			
				<mask maskUnits="userSpaceOnUse" x="41.2" y="37.8" width="1.5" height="21.7" id="SVGID_00000083778756486193313440000009623988327653467309_">
				<g style="filter:url(#Adobe_OpacityMaskFilter_00000007386005517209266910000012572912385477778102_);">
					
						<linearGradient id="SVGID_00000016765570895800954800000009478573517773751989_" gradientUnits="userSpaceOnUse" x1="41.6876" y1="64.2897" x2="41.6876" y2="39.7158">
						<stop  offset="0" style="stop-color:#FFFFFF"/>
						<stop  offset="1" style="stop-color:#000000"/>
					</linearGradient>
					
						<rect x="38.6" y="37.2" style="fill:url(#SVGID_00000016765570895800954800000009478573517773751989_);" width="6.1" height="27.1"/>
				</g>
			</mask>
			<g style="opacity:0.6;mask:url(#SVGID_00000083778756486193313440000009623988327653467309_);">
				<path class="st0" d="M42.6,38.5v21c-0.5-0.3-1-0.5-1.5-0.9V38.5c0-0.4,0.3-0.7,0.7-0.7C42.3,37.8,42.6,38.1,42.6,38.5z"/>
			</g>
		</g>
		<defs>
			
				<filter id="Adobe_OpacityMaskFilter_00000012451828136656703700000004442574218932075684_" filterUnits="userSpaceOnUse" x="59.6" y="31" width="1.5" height="11.7">
				<feColorMatrix  type="matrix" values="1 0 0 0 0  0 1 0 0 0  0 0 1 0 0  0 0 0 1 0"/>
			</filter>
		</defs>
		
			<mask maskUnits="userSpaceOnUse" x="59.6" y="31" width="1.5" height="11.7" id="SVGID_00000099639350926642898680000001560909461249412245_">
			<g style="filter:url(#Adobe_OpacityMaskFilter_00000012451828136656703700000004442574218932075684_);">
				
					<linearGradient id="SVGID_00000100378002542524460850000000461507726481304465_" gradientUnits="userSpaceOnUse" x1="60.6595" y1="46.6591" x2="60.6595" y2="31.7787">
					<stop  offset="0" style="stop-color:#FFFFFF"/>
					<stop  offset="1" style="stop-color:#000000"/>
				</linearGradient>
				
					<rect x="58.8" y="30.3" style="fill:url(#SVGID_00000100378002542524460850000000461507726481304465_);" width="3.7" height="16.4"/>
			</g>
		</mask>
		<g style="opacity:0.5;mask:url(#SVGID_00000099639350926642898680000001560909461249412245_);">
			<path class="st0" d="M61.1,31.7v11c-0.5,0-1-0.1-1.5-0.1V31.7c0-0.4,0.3-0.7,0.7-0.7C60.8,31,61.1,31.3,61.1,31.7z"/>
		</g>
		<defs>
			
				<filter id="Adobe_OpacityMaskFilter_00000069396664796525359840000009281922305349655968_" filterUnits="userSpaceOnUse" x="43.6" y="25.5" width="1.5" height="11.4">
				<feColorMatrix  type="matrix" values="1 0 0 0 0  0 1 0 0 0  0 0 1 0 0  0 0 0 1 0"/>
			</filter>
		</defs>
		
			<mask maskUnits="userSpaceOnUse" x="43.6" y="25.5" width="1.5" height="11.4" id="SVGID_00000070817306385857931720000006860835061480936364_">
			<g style="filter:url(#Adobe_OpacityMaskFilter_00000069396664796525359840000009281922305349655968_);">
				
					<linearGradient id="SVGID_00000114775862740503398280000006689780212719634591_" gradientUnits="userSpaceOnUse" x1="44.6341" y1="41.138" x2="44.6341" y2="26.2576">
					<stop  offset="0" style="stop-color:#FFFFFF"/>
					<stop  offset="1" style="stop-color:#000000"/>
				</linearGradient>
				
					<rect x="42.8" y="24.7" style="fill:url(#SVGID_00000114775862740503398280000006689780212719634591_);" width="3.7" height="16.4"/>
			</g>
		</mask>
		<g style="opacity:0.5;mask:url(#SVGID_00000070817306385857931720000006860835061480936364_);">
			<path class="st0" d="M45.1,26.2v10.7c-0.5-0.3-1-0.7-1.5-1v-9.6c0-0.4,0.3-0.7,0.7-0.7C44.7,25.5,45.1,25.8,45.1,26.2z"/>
		</g>
	</g>
	<g>
		<path class="st0" d="M80.9,87.3l1.3-6.3h29.1l-1.2,6.3H80.9z M89.8,98.3L95.4,70h6.7l-5.6,28.3H89.8z"/>
	</g>
</g>
</svg>