<svg data-name="Layer 1" xmlns="http://www.w3.org/2000/svg" xmlns:xlink="http://www.w3.org/1999/xlink" viewBox="0 0 46.6 44" class=""><defs><linearGradient id="id-305e" x1="-58.15" y1="-175.79" x2="-23.07" y2="-175.79" gradientTransform="matrix(1 -.02 -.02 -1 59.73 -148.59)" gradientUnits="userSpaceOnUse"><stop offset="0" stop-color="#ffd25f"></stop><stop offset=".05" stop-color="#f8c252"></stop><stop offset=".33" stop-color="#cd6107"></stop><stop offset="1" stop-color="#b64406"></stop></linearGradient><linearGradient id="id-306f" x1="-58.19" y1="-600.2" x2="-23.26" y2="-600.2" gradientTransform="translate(78.9 627.17)" gradientUnits="userSpaceOnUse"><stop offset=".13" stop-color="#ffd25f"></stop><stop offset=".16" stop-color="#f8c252"></stop><stop offset=".35" stop-color="#cd6107"></stop><stop offset=".83" stop-color="#b64406"></stop></linearGradient><linearGradient id="id-307g" x1="-58.16" y1="-167.52" x2="-23.08" y2="-167.52" gradientTransform="matrix(1 -.02 -.02 -1 59.73 -148.59)" gradientUnits="userSpaceOnUse"><stop offset="0" stop-color="#fef8aa"></stop><stop offset=".1" stop-color="#fef286"></stop><stop offset=".38" stop-color="#fee125"></stop><stop offset=".81" stop-color="#fea200"></stop></linearGradient><linearGradient id="id-308h" x1="-33.82" y1="-167.77" x2="-23.09" y2="-167.77" gradientTransform="matrix(1 -.02 -.02 -1 59.73 -148.59)" gradientUnits="userSpaceOnUse"><stop offset="0" stop-color="#f28c06"></stop><stop offset=".81" stop-color="#ee7701"></stop></linearGradient><linearGradient id="id-301a" x1="-54.16" y1="-166.3" x2="-26.6" y2="-166.3" gradientTransform="matrix(1 -.02 -.02 -1 59.73 -148.59)" gradientUnits="userSpaceOnUse"><stop offset="0" stop-color="#fbc002"></stop><stop offset=".45" stop-color="#fdcf1a"></stop><stop offset="1" stop-color="#ff9002"></stop></linearGradient><linearGradient id="id-309i" x1="-54.18" y1="-609.57" x2="-26.62" y2="-609.57" gradientTransform="translate(78.9 627.17)" xlink:href="#id-301a"></linearGradient><linearGradient id="id-302b" x1="-40.96" y1="-606" x2="-34.77" y2="-606" gradientTransform="translate(78.9 627.17)" gradientUnits="userSpaceOnUse"><stop offset="0" stop-color="#fcda79"></stop><stop offset=".45" stop-color="#ffe560"></stop><stop offset="1" stop-color="#ffd825"></stop></linearGradient><linearGradient id="id-303c" x1="-41.08" y1="-606" x2="-34.65" y2="-606" gradientTransform="translate(78.9 627.17)" gradientUnits="userSpaceOnUse"><stop offset="0" stop-color="#fadd13"></stop><stop offset=".19" stop-color="#fbe02a"></stop><stop offset="1" stop-color="#fdea8b"></stop></linearGradient><linearGradient id="id-311k" x1="-43.48" y1="-611.29" x2="-31.72" y2="-611.29" xlink:href="#id-302b"></linearGradient><linearGradient id="id-312l" x1="-43.6" y1="-611.29" x2="-31.6" y2="-611.29" xlink:href="#id-303c"></linearGradient><linearGradient id="id-313m" x1="-40.75" y1="-603.87" x2="-38.09" y2="-603.87" xlink:href="#id-302b"></linearGradient><linearGradient id="id-314n" x1="-40.87" y1="-603.87" x2="-37.97" y2="-603.87" xlink:href="#id-303c"></linearGradient><linearGradient id="id-315o" x1="-45.14" y1="-608.2" x2="-33.41" y2="-608.2" xlink:href="#id-302b"></linearGradient><linearGradient id="id-316p" x1="-45.26" y1="-608.2" x2="-33.32" y2="-608.2" xlink:href="#id-303c"></linearGradient><linearGradient id="id-317q" x1="-43.83" y1="-610.77" x2="-37.62" y2="-610.77" xlink:href="#id-302b"></linearGradient><linearGradient id="id-318r" x1="-43.96" y1="-610.77" x2="-37.49" y2="-610.77" xlink:href="#id-303c"></linearGradient><linearGradient id="id-319s" x1="-49.44" y1="-611.47" x2="-37.37" y2="-611.47" xlink:href="#id-302b"></linearGradient><linearGradient id="id-320t" x1="-49.56" y1="-611.47" x2="-37.24" y2="-611.47" xlink:href="#id-303c"></linearGradient><radialGradient id="id-310j" cx="-42.09" cy="-609.57" r="15.35" gradientTransform="translate(78.9 627.17)" gradientUnits="userSpaceOnUse"><stop offset="0" stop-color="#fbc002" stop-opacity="0"></stop><stop offset=".19" stop-color="#fab902" stop-opacity=".19"></stop><stop offset=".46" stop-color="#f7a704" stop-opacity=".46"></stop><stop offset=".78" stop-color="#f38905" stop-opacity=".78"></stop><stop offset="1" stop-color="#ef7007"></stop></radialGradient><radialGradient id="id-304d" cx="1154.44" cy="-3629.62" r="2.03" gradientTransform="matrix(1.27 .72 .22 -.38 -660.02 -2185.47)" gradientUnits="userSpaceOnUse"><stop offset="0" stop-color="#fff"></stop><stop offset="1" stop-color="#fff" stop-opacity="0"></stop></radialGradient><radialGradient id="id-321u" cx="1154.44" cy="-3629.62" r="1.4" xlink:href="#id-304d"></radialGradient><radialGradient id="id-322v" cx="1154.44" cy="-3629.62" r="1.11" xlink:href="#id-304d"></radialGradient><radialGradient id="id-323w" cx="800.27" cy="-4890.27" r="1.84" gradientTransform="matrix(.85 .53 .19 -.31 301.95 -1919.15)" xlink:href="#id-304d"></radialGradient><radialGradient id="id-324x" cx="800.27" cy="-4890.27" r="1.27" gradientTransform="matrix(.85 .53 .19 -.31 301.95 -1919.15)" xlink:href="#id-304d"></radialGradient><radialGradient id="id-325y" cx="800.27" cy="-4890.27" r="1.01" gradientTransform="matrix(.85 .53 .19 -.31 301.95 -1919.15)" xlink:href="#id-304d"></radialGradient><radialGradient id="id-326z" cx="229.72" cy="-2701.71" r="1.07" gradientTransform="matrix(.98 .22 .09 -.4 33.76 -1109.13)" xlink:href="#id-304d"></radialGradient><radialGradient id="id-327A" cx="229.72" cy="-2701.71" r=".74" gradientTransform="matrix(.98 .22 .09 -.4 33.76 -1109.13)" xlink:href="#id-304d"></radialGradient><radialGradient id="id-328B" cx="229.72" cy="-2701.71" r=".59" gradientTransform="matrix(.98 .22 .09 -.4 33.76 -1109.13)" xlink:href="#id-304d"></radialGradient></defs><path d="M5.8 24.1c.2 7 8.2 12.7 17.8 12.5s17.3-6.2 17.1-13.3c0-1.9-.1-4-.1-4l-34.9 1s0 .4.1 3.8z" fill="url(#id-305e)"></path><path d="M5.8 24.1c.2 7 8.2 12.7 17.8 12.5s17.3-6.2 17.1-13.3c0-1.9-.1-4-.1-4l-34.9 1s0 .4.1 3.8z" fill="url(#id-306f)"></path><path d="M29.8 19.6l.6 15.7c6.2-2.1 10.6-6.7 10.5-12-.1-1.9-.1-4-.1-4z" fill="#892603" opacity=".66" style="isolation: isolate;"></path><path d="M23 32.5c-9.7.2-17.1-5.2-17.3-12.2a10.2 10.2 0 013.2-7.2 9.7 9.7 0 00-3 7.2c.1 6.9 7.8 12.3 17.5 12a19.5 19.5 0 0014-5.8c-3.4 2.7-8.6 5.8-14.4 6z" fill="#fffef0"></path><path d="M22.9 7.4c9.6-.2 17.6 5.2 17.7 12.1s-7.5 12.6-17.1 12.8-17.6-5.1-17.8-12S13.3 7.7 22.9 7.4z" fill="url(#id-307g)"></path><path d="M33.4 27.8a12.8 12.8 0 01-3.2 3.4c6.2-2.1 10.7-6.6 10.6-11.8s-4.1-8.8-9.7-10.7c1.8 1.9 4.6 5.2 5.3 7.8s-.4 4.9-.4 4.9a17.5 17.5 0 01-2.6 6.4z" fill="url(#id-308h)"></path><path d="M23.2 9.4c7.6-.1 13.9 3.8 14.1 8.9s-6 9.5-13.6 9.6-13.9-3.8-14-8.9 5.9-9.4 13.5-9.6z" fill="url(#id-301a)"></path><path d="M23.2 9.5c7.6-.1 13.9 3.9 14 8.9s-5.9 9.5-13.5 9.6-13.9-3.8-14-8.9 5.9-9.3 13.5-9.6z" fill="url(#id-309i)"></path><path d="M23.2 9.5c7.6-.1 13.9 3.9 14 8.9s-5.9 9.5-13.5 9.6-13.9-3.8-14-8.9 5.9-9.3 13.5-9.6z" fill="url(#id-310j)"></path><ellipse cx="23.4" cy="18.7" rx="13.8" ry="9.2" transform="rotate(-1.4 24.304 20.762)" fill="none" stroke="#fef437" stroke-miterlimit="10" stroke-width=".25"></ellipse><ellipse cx="23.4" cy="18.7" rx="13.6" ry="9.2" transform="rotate(-1.4 24.304 20.762)" fill="none" stroke="#c52609" stroke-miterlimit="10" stroke-width=".1"></ellipse><path d="M24.4 10.7c3.7 1.8 6.1 4.8 6.2 8.3s-1.5 5.6-4.1 7.6c5.6-1.2 9.5-4.3 9.4-8s-5.1-7.4-11.5-7.9z" fill="#f74000" opacity=".43" style="isolation: isolate;"></path><path d="M9.9 19.1c-.1-5.1 5.9-9.4 13.4-9.6a22.6 22.6 0 015.3.6 16.4 16.4 0 00-5.4-.7c-7.6.2-13.6 4.5-13.4 9.6s3.6 7.1 8.7 8.4c-5-1.3-8.5-4.4-8.6-8.3z" fill="#c52609"></path><path d="M28.9 20.9c0 .2 0 .2-.1.3s-.5 1-1.4 1.5-.6.7-1.2.9a2.5 2.5 0 01-1.2.1h1.4c.6-.2.2-.3 1.2-.9s1.3-1 1.4-1.5.2-.6-.1-.4zm.6-7.9c2.3-.1 3.5 1.4 1 3.7a16.4 16.4 0 01-9 4.3h.1a16.9 16.9 0 009.1-4.3c2.5-2.5 1-3.8-1.2-3.7zM28 14l-2 .3a43.9 43.9 0 00-5.6 2.1c0 .2 0 0 .3 0a43.9 43.9 0 015.6-2.1zm-3.5 10.1h.3l-1-.2h-.1a1.7 1.7 0 01.8.2zm1.4-.1s0-.1-.3-.1a.2.2 0 01.2.2c.1.3-.4.9-1.1.9h-.2c.1-.1.2-.1.4 0s1.2-.4 1-1zm4.4-6.2a4.6 4.6 0 01-1.3 1.7 8 8 0 01-2.5 1.6c-.2.1-.2.1.2.2s0 0 .1-.2a10.1 10.1 0 002.5-1.7 3.8 3.8 0 001.3-1.6c-.2-.1-.2-.1-.3 0z" fill="#ed8507"></path><path d="M27.8 20.9c-.2.3-1.1 1.1-3.8 1.3h.3c2.7-.2 3.6-1 3.5-1.3s.3-.1 0 0zM23.7 18s0 .2-.1.2a4.8 4.8 0 01-2.1.8h.1a5.6 5.6 0 002.1-.8c.3-.2.3-.4 0-.2zm2-1.8c.3 0 .3.1-.2.1a9.1 9.1 0 00-3.7 1.4c-.6.5-.2.5.2.6s-.5-.2 0-.6a8.5 8.5 0 013.6-1.4c.8-.1.7-.1.1-.1zM25.9 12.9c.3 0 .3.1-.2.3-5.1.8-10.1 5-7.9 6.3a2.2 2.2 0 001.7.3 2.1 2.1 0 01-1.5-.3c-2.2-1.3 2.8-5.5 8-6.5.4.1.5-.1-.1-.1zm-.4 5.3l-.2.3a20.6 20.6 0 01-5.8 2.4l-2.1.3 2.2-.3a24.3 24.3 0 005.8-2.4c.4-.3.4-.3.1-.3z" fill="#ed8507"></path><g opacity=".81" fill="#a60100"><path d="M29.1 20.9a5.7 5.7 0 01-2.4 2.1 19.3 19.3 0 01-3.4.3c-.3 0-.2.4.3.7a4.6 4.6 0 003 .2c.7-.2.3-.3 1.2-.9a3.4 3.4 0 001.5-1.5c.2-.3 0-1.1-.2-.9zm0-7.2a27 27 0 00-8.7 2.8.4.4 0 00.5.5 38.4 38.4 0 015.6-2.1c3.5-.8 3.9.3 3.3 1.4s-4.9 3.6-8.3 4.7c-.5.2 0 .8.4.7a17.3 17.3 0 009.1-4.4c2.6-2.7.8-4.2-1.9-3.6z"></path><path d="M25.8 24.2c-.4 0-.5.4-.9.4l-.9-.2h-.3c-.3.1-.3.4-.3.7s.8.6 1.6.6 1.1-.6 1.1-1 0-.5-.3-.5zm4.5-6.4a9.7 9.7 0 01-4.3 3.6 13.3 13.3 0 01-7 .2c-.3 0 .2.7.3.8s1.8 1 5.4.5 3.6-1 3.7-1.3.1-.6-.1-.5a3.9 3.9 0 01-1.4.4c-.3.1-.1.3.2.2a12.1 12.1 0 002.4-1.7 3.8 3.8 0 001.3-1.6c-.1-.1-.3-.8-.5-.6zm-8.1.6a9.1 9.1 0 013.7-1.4c.8-.2.5-.8-.2-.8a13.2 13.2 0 00-4.1 1.1c-1.9.9-2.4 2.6.1 2.3a6.1 6.1 0 002.1-.9c.2-.1 0-.9-.3-.7a4 4 0 01-1.3.6c-.3 0-.6.3 0-.2z"></path><path d="M25.7 19.2c.4-.3.4-1.1-.2-.8s-5.6 2.9-7.3 1.8 2.8-5.4 8-6.4c.7-.2.5-.8-.2-.8-4.3.5-12.6 4.9-11.1 7.8.6 1.2 2.8 1.2 5.1.8a30.8 30.8 0 005.7-2.4z"></path></g><path d="M28.9 20.9a5.1 5.1 0 01-2.5 1.4 7 7 0 01-3.3.3c-.3.1-.1.5.3.7a4.9 4.9 0 003.1.2c.6-.2.2-.3 1.2-.9s1.3-1 1.4-1.5.1-.4-.2-.2z" stroke-miterlimit="10" stroke-width=".25" fill="url(#id-302b)" stroke="url(#id-303c)"></path><path d="M28.8 13a17.6 17.6 0 00-8.3 3.3c-.3.2-.2.3.1.1a32.3 32.3 0 015.6-2.1c3.6-.8 4 .3 3.4 1.4-1.6 2.6-4.4 4.1-7.9 5.2-.6.1-.5.3 0 .1a16.4 16.4 0 009-4.3c2.8-2.6.8-4.1-1.9-3.7z" stroke-miterlimit="10" stroke-width=".25" fill="url(#id-311k)" stroke="url(#id-312l)"></path><path d="M25.5 24h-.9l-.9-.2h-.3a.6.6 0 00-.2.7c.1.4.8.6 1.6.6s1.2-.6 1-1 .1-.2-.3-.1z" stroke-miterlimit="10" stroke-width=".25" fill="url(#id-313m)" stroke="url(#id-314n)"></path><path d="M30 18a9 9 0 01-4.3 2.8 18.3 18.3 0 01-6.7.8c-.3 0-.3 0-.1.1s1.9 1.1 5.4.6 3.6-1 3.7-1.3.1-.3-.1-.1a1.6 1.6 0 01-1 .2c-.2.1-.4 0-.1-.1a14 14 0 002.5-1.6 5.3 5.3 0 001.2-1.7s-.2 0-.5.3z" stroke-miterlimit="10" stroke-width=".25" fill="url(#id-315o)" stroke="url(#id-316p)"></path><path d="M22.1 17.8a8.3 8.3 0 013.6-1.5c.9-.1.6-.2 0-.1a8.8 8.8 0 00-3.6.9c-2.1.7-3 2.3-.5 1.8a4.3 4.3 0 002.1-.8c.4-.1.2-.3 0-.2a5.7 5.7 0 01-1.4.4c-.5 0-.8 0-.2-.5z" stroke-miterlimit="10" stroke-width=".25" fill="url(#id-317q)" stroke="url(#id-318r)"></path><path d="M25.4 18.5c.4-.3.3-.3-.1-.2s-5.5 2.3-7.4 1.2S20.7 14 26 13c.6-.1.5-.3-.1-.3-4.3.5-12.7 4.3-11.2 7.3.6 1.2 2.8 1.3 5.1.8a16.7 16.7 0 005.6-2.3z" stroke-miterlimit="10" stroke-width=".25" fill="url(#id-319s)" stroke="url(#id-320t)"></path><path d="M25.9 22.5l.7-.3a9.3 9.3 0 01-3.4.3c-.1 0-.1.1-.1.3a11 11 0 002.8-.3zm3-1.6c-.1.2-.2.1-.3.3a2.7 2.7 0 01-1.5 1.5 1.9 1.9 0 00-.8.7h.2c.6-.2.2-.3 1.2-.9s1.3-1 1.4-1.5.1-.4-.2-.2zm-7.3 0h-.4l1.3-.5c-.2.3-.6.3-.9.5zm2.4-6a35.6 35.6 0 00-3.6 1.6h.3a13.8 13.8 0 013.3-1.6zm4.8-1.9a23.5 23.5 0 00-4.2 1 13.5 13.5 0 013.6-.8c2.6-.4 4.6.9 1.8 3.6a17 17 0 01-5.4 3.5 14.8 14.8 0 006-3.6c2.9-2.6.9-4.1-1.8-3.7zm-2.9 11s0-.1-.3-.1h-.9l-.9-.2h-.3v.2c.1 0 .4.2.6.1h.9c.3 0 .3 0 .3.1s-.1.5-.3.8 1.1-.5.9-.9zM18.8 21.7A14.5 14.5 0 0025 21h.4a18.5 18.5 0 01-6.5.7zm9-.8l-.3.2h-.2c-.1.2-.3.3-1 .6 1.1-.3 1.4-.7 1.5-.9s.3 0 0 .1z" fill="#feba17"></path><path d="M30 18c0 .1-.1.2-.3.4a3.7 3.7 0 01-1.1 1.3 8.5 8.5 0 01-2.5 1.7c-.2.1-.2.1.2.1a2.4 2.4 0 00.9-.3h-.3c-.3 0-.4 0-.2-.2a9.3 9.3 0 002.5-1.6 4.6 4.6 0 001.3-1.7s-.2 0-.5.3zM25.6 16.2a12.2 12.2 0 00-3.4.8 8.7 8.7 0 012.8-.5h.7c.7-.3.6-.3-.1-.3zM23.7 18a4.9 4.9 0 01-1.4.3c-.5 0-.8 0-.2-.5a4.7 4.7 0 011.5-.8 5.8 5.8 0 00-2.1 1c-.7.5-.2.5.3.5a10.6 10.6 0 001.4-.3c.2-.1.4 0 .1.1l-.9.5a4.9 4.9 0 001.6-.7c0-.1 0-.3-.3-.1z" fill="#feba17"></path><path d="M25.9 12.9a29.3 29.3 0 00-4.4 1.2 22.7 22.7 0 013.8-.9h.5c.8-.2.7-.3.1-.3zm-2.7 1c-4.4 1.4-7.7 4.7-5.8 5.9s5-.3 6.6-.9c-1.8.6-4.8 1.5-6.1.7s1.2-4.1 5.3-5.7zm2.1 4.4l-.3.2c.2-.1.2-.1-.1.3a24.3 24.3 0 01-3.7 1.8 14.2 14.2 0 004.2-2c.5-.4.4-.4-.1-.3z" fill="#feba17"></path><path d="M29.1 20.9zm-1.3 1.6a1.2 1.2 0 00-.5.5l.4-.3.6-.4-.5.2zm-1.2.9a4.9 4.9 0 01-3.1-.2.6.6 0 01-.4-.5c-.3 0-.2.4.3.7a4.2 4.2 0 003.1.1l.5-.2c-.1-.1-.3.1-.4.1zm-4.9-2.6h-.4c-.2.1-.2.1.2.1a15.8 15.8 0 008.3-3.5 15.5 15.5 0 01-8.1 3.4zm7.7-5.1a9.2 9.2 0 01-1.7 2.1 9.2 9.2 0 001.8-2.2c.6-1 .2-2.1-3.3-1.3a23.6 23.6 0 00-5.6 2.1c-.3.1-.4.1-.2-.2v.2c-.3.3-.1.3.1.1a41.3 41.3 0 015.7-2.1c3.6-.9 4.1.3 3.3 1.3zM25 25c-.6.1-1.4-.1-1.6-.6a.7.7 0 01.1-.5h-.1c-.3.1-.3.4-.3.7a2.1 2.1 0 001.7.6 1.5 1.5 0 00.9-.4 1.2 1.2 0 00-.7.2zM26.9 21c-.1 0-.1.2-.1.2a6.2 6.2 0 001.8-1.3 4.1 4.1 0 01-1.7 1.1zm3.3-3.1s-.2 0-.2.1l-.9 1 1.1-1.1zm-5.8 4.3c-3.5.4-5.1-.3-5.4-.5s-.3 0-.2.2 1.9 1 5.5.5 3.6-1 3.7-1.3a9 9 0 01-3.6 1.1z" fill="#fffefb"></path><path d="M21.7 18.8c-1.7.4-1.9-.3-1-1-.9.7-1 1.4.9 1.2a3.7 3.7 0 002-.9c.2 0 .2-.1.2-.1a4.3 4.3 0 01-2.1.8zm4.4-2.6h-.2a8.2 8.2 0 00-3.7 1.5h-.1a8.5 8.5 0 013.6-1.4z" fill="#fffefb"></path><path d="M25.5 18.4a18 18 0 01-5.8 2.4c-2.2.4-4.5.3-5-.8s.1-2 1.3-3.1c-1.3 1-2 2.1-1.5 3.2s2.8 1.2 5 .8a20.6 20.6 0 005.8-2.4c.2-.1.4-.1.2-.1zm.9-5.5h-.3a14.8 14.8 0 00-6.8 3.1 14.3 14.3 0 016.6-2.9c.4-.1.5 0 .5-.2z" fill="#fffefb"></path><path d="M13.6 30.7l2.9.6-3-.7-2.1-2.2 1.9 2.1-2.9-.5 3 .7 2.1 2.2z" fill="#fffefb" opacity=".64" style="isolation: isolate;"></path><path d="M10.9 29.2c-.2.4.7 1.4 2.2 2.2s2.8 1.1 3.1.7-.7-1.4-2.2-2.2-2.8-1.1-3.1-.7z" fill="url(#id-304d)"></path><path d="M11.7 29.6c-.1.3.6 1 1.5 1.5s1.9.8 2.1.5-.5-1-1.4-1.6-2-.7-2.2-.4z" fill="url(#id-321u)"></path><path d="M12.1 29.8c-.1.3.4.8 1.2 1.1s1.4.7 1.6.5-.4-.8-1.2-1.1-1.5-.8-1.6-.5z" fill="url(#id-322v)"></path><path d="M33.3 12.1l1.8.3-1.9-.4-1.2-1.5 1 1.4-1.8-.3 1.9.5 1.2 1.5z" fill="#fffefb"></path><path d="M31.6 11c-.2.3.3 1.1 1.3 1.6s1.7.7 1.8.3-.3-1-1.2-1.5-1.7-.6-1.9-.4z" fill="url(#id-323w)"></path><path d="M32.1 11.3c-.1.3.3.7.9 1.1s1.1.5 1.3.2-.3-.5-.8-.9-1.3-.6-1.4-.4z" fill="url(#id-324x)"></path><path d="M32.2 11.5c-.1.2.2.6.7 1a1 1 0 001.1.2c.1-.1-.2-.5-.7-.9s-.9-.5-1.1-.3z" fill="url(#id-325y)"></path><path d="M20.5 22.5l1-.3h-1.1l-.9-.5.8.7h.2l.9.6z" fill="#fffefb"></path><path d="M19.4 22.2c0 .3.4.5.9.6a2 2 0 001.2-.1c0-.3-.4-.5-.9-.7s-1.2-.1-1.2.2z" fill="url(#id-326z)"></path><path d="M19.7 22.2q0 .3.6.6c.5.1.9-.1.9-.2a1.4 1.4 0 00-.7-.5.9.9 0 00-.8.1z" fill="url(#id-327A)"></path><path d="M19.8 22.4c0 .1.1.2.5.4s.7-.1.7-.2-.1-.2-.5-.4a.5.5 0 00-.7.2z" fill="url(#id-328B)"></path></svg>